<svg width="32" height="32" xmlns="http://www.w3.org/2000/svg">

 <g>
  <title>background</title>
  <rect fill="none" id="canvas_background" height="402" width="582" y="-1" x="-1"/>
 </g>
 <g>
  <title>Layer 1</title>
  <rect fill-opacity="0" x="0" y="-0.063898" id="svg_1" width="32" height="32" fill="#000000"/>
  <path fill="#fbe165" id="svg_2" d="m14.84984,13.169329c1.657,0 3,-1.343 3,-3s-1.343,-3 -3,-3s-3,1.343 -3,3s1.343,3 3,3zm8,-6c1.657,0 3,-1.343 3,-3s-1.343,-3 -3,-3s-3,1.343 -3,3s1.343,3 3,3zm-11.977,6c-0.633,-0.838 -1.023,-1.869 -1.023,-3c0,-0.343 0.035,-0.677 0.101,-1c-2.133,0 -7.101,0 -7.101,0s-2,0 -2,2c0,0.778 0,12 0,12l6,0l0,-6c0,-4 4,-4 4,-4l0.023,0zm-4.023,-6c1.657,0 3,-1.343 3,-3s-1.343,-3 -3,-3s-3,1.343 -3,3s1.343,3 3,3zm22,9.349l0,-5.349c0,0 0,-2 -2,-2l-7.101,0c0.066,0.323 0.101,0.657 0.101,1c0,1.131 -0.39,2.162 -1.022,3l0.022,0c0.477,0 0.878,0.073 1.246,0.173c-1.457,0.288 -2.787,0.928 -3.898,1.827c-2.34,0 -5.348,0 -5.348,0s-2,0 -2,2c0,0.778 0,12 0,12l7.349,0c1.545,1.248 3.51,1.999 5.651,2c4.971,-0.002 8.998,-4.029 9,-9c-0.001,-2.142 -0.752,-4.106 -2,-5.651zm-7,12.534c-3.801,-0.009 -6.876,-3.084 -6.885,-6.883c0.009,-3.801 3.084,-6.876 6.885,-6.885c3.799,0.009 6.874,3.084 6.883,6.885c-0.009,3.799 -3.084,6.874 -6.883,6.883z"/>
  <polygon fill="#fbe165" id="svg_4" points="26.785942554473877,21.10543131828308 22.787943363189697,21.10543131828308 22.787943363189697,17.10543131828308 20.785942554473877,17.10543131828308 20.785942554473877,21.10543131828308 16.785942554473877,21.10543131828308 16.785942554473877,23.10543131828308 20.785942554473877,23.10543131828308 20.785942554473877,27.10543131828308 22.787943363189697,27.10543131828308 22.787943363189697,23.10543131828308 26.785942554473877,23.10543131828308 "/>
 </g>
</svg>