<svg width="72" height="58" xmlns="http://www.w3.org/2000/svg">

 <g>
  <title>background</title>
  <rect fill="none" id="canvas_background" height="402" width="582" y="-1" x="-1"/>
 </g>
 <g>
  <title>Layer 1</title>
  <path id="svg_2" fill="#4886f0" d="m67.693,37l-6.693,0l0,-6.693c0,-2.307 -1.858,-4.307 -4.165,-4.307l-1.671,0c-2.306,0 -4.164,2 -4.164,4.307l0,6.693l-6.694,0c-2.306,0 -4.306,1.857 -4.306,4.164l0,1.671c0,2.306 2,4.165 4.306,4.165l6.694,0l0,6.693c0,2.307 1.858,4.307 4.164,4.307l1.671,0c2.307,0 4.165,-2 4.165,-4.307l0,-6.693l6.693,0c2.307,0 4.307,-1.859 4.307,-4.165l0,-1.671c0,-2.307 -2,-4.164 -4.307,-4.164z"/>
  <circle id="svg_3" r="13.5" fill="#4886f0" cy="13.5" cx="31.5"/>
  <path id="svg_4" fill="#4886f0" d="m46,52l-1.694,0c-5.131,0 -9.306,-4.111 -9.306,-9.165l0,-1.671c0,-5.053 4.175,-9.164 9.306,-9.164l1.694,0l0,-1l-29.005,0c-7.813,5.436 -13.936,15.132 -16.947,27l47,0c-0.666,-1.289 -1.048,-2.753 -1.048,-4.307l0,-1.693z"/>
 </g>
</svg>