<svg width="47.99999999999999" height="47.99999999999999" xmlns="http://www.w3.org/2000/svg">

 <g>
  <title>background</title>
  <rect fill="none" id="canvas_background" height="402" width="582" y="-1" x="-1"/>
 </g>
 <g>
  <title>Layer 1</title>
  <path fill="#27c24c" id="svg_1" d="m43.281,27.487l0,-19.372c-10.176,-0.171 -18.989,-8.107 -18.989,-8.107s-8.813,7.936 -18.989,8.107l-0.584,0l0,18.897c0,0.803 0.186,2.161 0.187,2.165c0.604,3.032 3.658,11.327 19.091,18.794c0.001,0.007 0.003,0.014 0.004,0.021c0.006,-0.004 0.012,-0.006 0.019,-0.009c0.006,0.003 0.012,0.005 0.018,0.009c0.002,-0.007 0.003,-0.014 0.004,-0.021c15.244,-7.375 18.408,-15.556 19.065,-18.678c0.116,-0.551 0.174,-1.806 0.174,-1.806z"/>
 </g>
</svg>