<svg width="256" height="256" xmlns="http://www.w3.org/2000/svg">
 <title/>
 <desc/>

 <g>
  <title>background</title>
  <rect fill="none" id="canvas_background" height="402" width="582" y="-1" x="-1"/>
 </g>
 <g>
  <title>Layer 1</title>
  <path id="Fill-1" fill="#fbe165" d="m146.82902,158.24705l109.06859,-59.06619l-49.82583,-49.38446l10.41892,38.78897l-69.66168,69.66168zm-62.7462,-85.61311l-84.08285,84.08284l49.82593,49.35498l-10.38944,-38.78886l44.64636,-94.64896zm13.56769,74.19506l59.06629,109.06869l49.35498,-49.82593l-38.78886,10.38944l-69.63241,-69.6322zm-9.03575,-107.39267l69.63231,69.63231l-59.06629,-109.06859l-49.38436,49.82583l38.81834,-10.38955z"/>
  <path id="Fill-4" fill="#fbe165" d="m255.89762,99.18084l-109.06869,59.06629l24.98584,24.98708l84.08285,-84.05337zm-171.81479,-26.54693l-44.64636,94.64897l69.6322,-69.63231l-24.98584,-25.01666zm72.63398,183.26376l-59.06629,-109.06869l-24.98707,24.98574l84.05336,84.08295zm26.51745,-171.84427l-84.05347,-84.05337l59.06629,109.06869l24.98718,-25.01532z"/>
  <path id="Fill-7" fill="#fbe165" d="m234.94342,20.95417l-78.22658,-20.95413l22.9271,42.73358l55.29948,-21.77945zm-213.9598,213.9599l78.1972,20.98361l-22.92597,-42.76183l-55.27123,21.77822zm234.91403,-78.1973l-42.73235,22.9272l21.77812,55.29948l20.95423,-78.22668zm-234.91403,-135.7626l-20.98361,78.22668l42.73358,-22.95535l-21.74997,-55.27133z"/>
  <path id="Fill-10" fill="#fbe165" d="m255.8976,99.18084l-20.95423,-78.22668l-55.29938,21.77945l26.42778,7.06277l49.82583,49.38446zm-206.07171,106.8909l-49.82593,-49.35488l20.98361,78.1972l55.27133,-21.77822l-26.42901,-7.0641zm106.8909,49.82593l78.22658,-20.95423l-21.77801,-55.29948l-7.09359,26.42778l-49.35498,49.82593zm-106.92038,-206.07181l49.38446,-49.82583l-78.1973,20.95413l21.75007,55.27133l7.06277,-26.39963z"/>
  <path id="Fill-13" fill="#fbe165" d="m156.71681,0l-9.88788,9.91859l32.81498,32.81499l-22.9271,-42.73358zm-47.64814,245.97905l-32.81375,-32.84324l22.92587,42.76183l9.88788,-9.91859zm146.82895,-89.26222l-9.91859,-9.88788l-32.81365,32.81498l42.73224,-22.9271zm-213.16407,-80.49137l-42.73357,22.95535l9.91859,9.88788l32.81498,-32.84323z"/>
 </g>
</svg>