<svg xmlns="http://www.w3.org/2000/svg" width="718" height="486" viewBox="0 0 718 486"><defs><linearGradient id="a" x1="58.01%" x2="41.09%" y1="26.22%" y2="69.6%"><stop offset="0%" stop-color="#F6F8FA"/><stop offset="100%" stop-color="#FFF"/></linearGradient><linearGradient id="b" x1="89.49%" x2="47.74%" y1="97.97%" y2="50%"><stop offset="0%" stop-color="#F3F8FF"/><stop offset="100%" stop-color="#BAC2DB"/></linearGradient><linearGradient id="c" x1="142.99%" x2="-134.96%" y1="8.35%" y2="132.97%"><stop offset="0%" stop-color="#FFF"/><stop offset="99.88%" stop-color="#216EC1"/></linearGradient><linearGradient id="d" x1="0%" y1="50%" y2="50%"><stop offset="0%" stop-color="#F2F5F9"/><stop offset="100%" stop-color="#DEF0FF"/></linearGradient><linearGradient id="e" x1="36.84%" x2="58.36%" y1="133.4%" y2="-3.05%"><stop offset="0%" stop-color="#2D9AC0"/><stop offset="100%" stop-color="#6CE8AB"/></linearGradient><linearGradient id="f" x1="50.01%" x2="50.01%" y1="208.99%" y2="-544.83%"><stop offset="0%" stop-color="#2D9AC0"/><stop offset="100%" stop-color="#6CE8AB"/></linearGradient><linearGradient id="g" x1="50%" x2="50%" y1="356.74%" y2="-397.08%"><stop offset="0%" stop-color="#2D9AC0"/><stop offset="100%" stop-color="#6CE8AB"/></linearGradient><linearGradient id="h" x1="0%" y1="50%" y2="50%"><stop offset="0%" stop-color="#F2F5F9"/><stop offset="100%" stop-color="#DEF0FF"/></linearGradient><linearGradient id="i" x1="62.22%" x2="44.47%" y1="50%" y2="0%"><stop offset="0%" stop-color="#F3F8FF"/><stop offset="26.74%" stop-color="#F5FAFE" stop-opacity=".81"/><stop offset="100%" stop-color="#F3F8FD" stop-opacity="0"/></linearGradient><linearGradient id="j" x1="82.05%" x2="36.98%" y1="139.16%" y2="16.01%"><stop offset="0%" stop-color="#FFF"/><stop offset="100%" stop-color="#FFF" stop-opacity="0"/></linearGradient><linearGradient id="k" x1="90.79%" x2="38.79%" y1="152.51%" y2="25.95%"><stop offset="0%" stop-color="#FFF"/><stop offset="100%" stop-color="#FFF" stop-opacity="0"/></linearGradient><linearGradient id="l" x1="82.94%" x2="38.93%" y1="39.99%" y2="110.41%"><stop offset="0%" stop-color="#4C5687"/><stop offset="100%" stop-color="#252B4F" stop-opacity="0"/></linearGradient><linearGradient id="m" x1="112.32%" x2="-80.87%" y1="16.51%" y2="120.32%"><stop offset="0%" stop-color="#FFF"/><stop offset="99.88%" stop-color="#216EC1"/></linearGradient><linearGradient id="n" x1="0%" y1="50%" y2="50%"><stop offset="0%" stop-color="#2D9AC0"/><stop offset="100%" stop-color="#6CE8AB"/></linearGradient><linearGradient id="o" x1="50%" x2="50%" y1="91.8%" y2="-23.47%"><stop offset="0%" stop-color="#FFF"/><stop offset="99.88%" stop-color="#00AA81"/></linearGradient><linearGradient id="p" x1="153.17%" x2="-42.3%" y1="-59.72%" y2="152.34%"><stop offset="0%" stop-color="#2D9AC0"/><stop offset="100%" stop-color="#6CE8AB"/></linearGradient><linearGradient id="q" x1="-10.74%" x2="203.57%" y1="-5.53%" y2="200.66%"><stop offset="0%" stop-color="#2D9AC0"/><stop offset="100%" stop-color="#6CE8AB"/></linearGradient><linearGradient id="r" x1="50%" x2="50%" y1="101.79%" y2="36.12%"><stop offset="0%" stop-color="#FFF"/><stop offset="100%" stop-color="#FFF" stop-opacity="0"/></linearGradient><linearGradient id="s" x1="64.38%" x2="40.83%" y1="90.69%" y2="24.19%"><stop offset="0%" stop-color="#FFF"/><stop offset="100%" stop-color="#FFF" stop-opacity="0"/></linearGradient><linearGradient id="t" x1="50%" x2="50%" y1="101.79%" y2="36.12%"><stop offset="0%" stop-color="#FFF"/><stop offset="100%" stop-color="#FFF" stop-opacity="0"/></linearGradient><linearGradient id="u" x1="50%" x2="78.22%" y1="7.62%" y2="66.01%"><stop offset="0%" stop-color="#F6FAFE" stop-opacity=".97"/><stop offset="23.04%" stop-color="#F5FAFE" stop-opacity=".88"/><stop offset="100%" stop-color="#F3F8FD" stop-opacity="0"/></linearGradient></defs><g fill="none"><path fill="#000" fill-opacity=".08" d="M0 271.25l369.22 214.13L717.9 280.92 369.22 77.8z"/><path fill="url(#a)" d="M0 193.47l369.22 214.12L717.9 203.14 369.22 0z" transform="translate(0 65)"/><path fill="#F3F5FF" d="M0 258.47l369.22 214.12v5.28L0 264.42z"/><path fill="#FFF" d="M717.9 268.14L369.23 472.59v5.28l348.69-204.29z"/><path fill="#BAC2DB" d="M303.24 346.89l177.47.05v-92.1l-79.56.03-57.34 27.78zM133.85 278.2l100.96.82 1.72-12.92h-95.76l-6.75 3.27z" opacity=".2"/><path fill="#C4D6EE" d="M103.82 275.89l.35-.6 11.74 6.77 39.22-22.62-11.49-6.63.36-.61 11.83 6.84 39.22-22.62-11.58-6.7.35-.6 11.93 6.9 39.22-22.63-11.67-6.74.35-.61 12.03 6.95 39.21-22.62-11.77-6.8.36-.61 12.12 7 39.22-22.62-11.87-6.85.35-.61 12.22 7.06 39.22-22.62-11.96-6.92.35-.6 12.31 7.11 12.33-7.1.35.6-11.97 6.9 39.2 22.66 12.22-7.05.35.61-11.87 6.85 39.2 22.65 12.13-7 .35.62-11.78 6.79 39.2 22.65 12.03-6.94.35.61-11.68 6.74 39.2 22.65 11.94-6.88.35.6-11.59 6.69 39.2 22.65 11.84-6.83.35.61-11.5 6.63 39.2 22.65 11.75-6.77.35.61-11.39 6.57 11.39 6.58-.35.61-11.74-6.78-39.22 22.62 11.48 6.63-.35.61-11.83-6.84-39.22 22.62 11.58 6.7-.35.6-11.94-6.9-39.21 22.63 11.67 6.74-.35.61-12.03-6.95-39.22 22.62 11.77 6.8-.35.61-12.12-7-39.22 22.62 11.87 6.86-.36.6-12.21-7.06-39.22 22.62 11.96 6.92-.35.6-12.32-7.11-12.32 7.1-.35-.6 11.97-6.9-39.2-22.66-12.22 7.05-.35-.61 11.87-6.85-39.2-22.65-12.13 7-.35-.62 11.78-6.79-39.2-22.65-12.03 6.94-.36-.61 11.69-6.74L195.7 329l-11.94 6.88-.35-.6 11.59-6.7-39.2-22.65-11.84 6.83-.36-.6 11.5-6.63-39.2-22.66-11.75 6.78-.35-.61 11.4-6.57-11.4-6.58zm52.71-16.44l39.2 22.65 39.22-22.62-39.2-22.65-39.22 22.62zm199.55 23.13l39.2 22.65 39.22-22.62-39.2-22.65-39.22 22.62zm38.52-23.03l-39.2-22.66-39.22 22.62 39.2 22.66 39.22-22.62zm-39.22 23.43l-39.22 22.62 39.2 22.66 39.22-22.62-39.2-22.66zm-.7-.4l-39.2-22.66-39.22 22.62 39.2 22.66 39.22-22.62zm-39.9-23.07l-39.2-22.65-39.22 22.62 39.2 22.65 39.21-22.62zm.7-.4l39.22-22.62-39.2-22.65-39.22 22.62 39.2 22.65zm39.92-23.03l39.22-22.62-39.2-22.65-39.22 22.62 39.2 22.65zm.7.41l39.2 22.65 39.22-22.62-39.2-22.65-39.22 22.62zm39.9 23.06l39.2 22.65 39.22-22.62-39.2-22.65L396 259.55zm39.9 23.06l39.2 22.66 39.22-22.62-39.2-22.66-39.21 22.62zm-.7.4l-39.22 22.63 39.2 22.65 39.22-22.62-39.2-22.65zm-39.92 23.03l-39.22 22.62 39.2 22.66 39.22-22.62-39.2-22.66zm-39.92 23.03l-39.22 22.62 39.2 22.65 39.22-22.62-39.2-22.65zm-.7-.4L315.46 306l-39.22 22.62 39.2 22.65 39.22-22.62zm-39.9-23.07l-39.2-22.65-39.22 22.62 39.2 22.65 39.21-22.62zm-39.9-23.06l-39.2-22.65-39.22 22.62 39.2 22.65 39.21-22.62zm-78.4-46.12l39.2 22.65 39.21-22.62-39.2-22.65-39.21 22.62zm39.92-23.03l39.2 22.66 39.21-22.62-39.2-22.66-39.21 22.62zm39.92-23.02l39.2 22.65 39.22-22.62-39.2-22.65-39.22 22.62zm79.14-45.65l-39.22 22.62 39.2 22.66 39.22-22.62-39.2-22.66zm39.9 23.06l-39.22 22.62 39.2 22.66 39.22-22.62-39.2-22.66zm39.9 23.06l-39.22 22.62 39.2 22.66 39.22-22.62-39.2-22.66zm39.9 23.07l-39.21 22.61 39.2 22.66 39.21-22.62-39.2-22.65zm39.9 23.06l-39.21 22.62 39.2 22.65 39.21-22.62-39.2-22.65zm79.1 45.71l-39.2-22.65-39.21 22.62 39.2 22.65 39.22-22.62zm-39.92 23.03l-39.2-22.66-39.21 22.62 39.2 22.66 39.21-22.62zm-39.92 23.02l-39.2-22.65-39.21 22.62 39.2 22.65 39.21-22.62zm-39.92 23.03l-39.2-22.66-39.22 22.62 39.2 22.66 39.22-22.62zm-39.92 23.02l-39.2-22.65-39.22 22.62 39.2 22.65 39.22-22.62zm-79.14 45.65l39.22-22.62-39.2-22.66-39.22 22.63 39.2 22.65zm-39.9-23.06l39.22-22.62-39.2-22.66-39.22 22.62 39.2 22.66zm-39.9-23.06l39.21-22.62-39.2-22.66-39.21 22.62 39.2 22.66zm-39.9-23.06l39.21-22.62-39.2-22.66-39.21 22.62 39.2 22.66zm-39.9-23.06l39.21-22.62-39.2-22.66-39.22 22.62 39.2 22.66zm-39.9-23.07l39.2-22.61-39.19-22.66-39.22 22.62 39.2 22.65z" opacity=".7"/><path fill="#BAC2DB" d="M194.37 221.98l-49.52 28.82 60 34.52 49.64-28.77z" opacity=".2"/><path fill="url(#b)" d="M116.56 200.16l431.39 248.58-58.39 33.42-430.7-248.42z" opacity=".2" transform="matrix(-1 0 0 1 607 -51)"/><path fill="url(#c)" d="M110.06 42.99v37.03l-49.53 28.56V71.6z" transform="matrix(-1 0 0 1 269.37 162.4)"/><path fill="#FFF" d="M208.84 234l46.07-26.51-48.7-28.88-46.9 26.78z"/><path fill="#50C0E4" d="M208.84 162.92l-49.53 28.82 60.01 34.53 49.63-28.77z" opacity=".8"/><path fill="#FFF" d="M159.31 194.77v-3.03l60.01 34.53v3.08z"/><path fill="#E4E9F6" d="M303.96 346.94v-80.82l-104.92-60.41v80.66z"/><path fill="#252B4F" d="M283.73 321.47v13.8l-11.95-6.9z" opacity=".2"/><path fill="#252B4F" d="M219.43 288.67l64.3 37.09v-17.1l-56.65-32.75a5.08 5.08 0 0 0-7.65 4.39v8.37z"/><path fill="#E4E9F7" d="M475.62 126.99L59.05 366.98l58.39 33.42 416.2-239.63z"/><path fill="#4A5ABA" d="M470.94 124.26L59.05 362.32l58.39 33.43 411.68-237.6z"/><path fill="#000" fill-opacity=".2" d="M381.27 243.68l-28.15 16.22L295 226.37l28.14-16.22zm-56.29 32.44l-28.15 16.21-58.17-33.48 28.2-16.26zm-170.7 31.33l58.17 33.53-28.14 16.21-58.17-33.53zm114.46 1.1l-28.14 16.21-58.18-33.53 28.15-16.21zM69.85 356.1l28.14-16.22 58.18 33.53-28.15 16.22zm451.82-193.5l-57.8-33.53 8-4.31 57.01 33.13zm-27.87 16.17l-28.15 16.21-58.07-33.47 28.14-16.22zm-56.24 32.43l-28.15 16.27-58.12-33.53 28.14-16.22z" opacity=".2"/><path fill="#BAC2DB" d="M117.44 417.3v-16.9l416.2-239.61v13.16z"/><path fill="#E4E9F7" d="M538.75 171.3L117.44 414.15v3.14l421.31-242.7z"/><path fill="#C5D1CD" d="M59.05 366.98v15.85l58.39 34.47v-16.9z"/><path fill="#D9EDEA" d="M59.05 370.06v-3.08l58.39 33.42v3.14z"/><g transform="matrix(-1 0 0 1 287.72 306.78)"><path fill="#A1A9C9" d="M9.9 13.33l7.66-4.55L6.7 2.5z"/><ellipse cx="6.68" cy="7.78" fill="#FFF" rx="3.72" ry="6.44" transform="rotate(-30 6.68 7.78)"/><ellipse cx="6.68" cy="7.78" fill="#A1A9C9" rx="2.25" ry="3.92" transform="rotate(-30 6.68 7.78)"/></g><g transform="matrix(-1 0 0 1 252.6 327.18)"><path fill="#A1A9C9" d="M10.12 13.28l7.7-4.55-10.9-6.28z"/><ellipse cx="6.9" cy="7.71" fill="#FFF" rx="3.72" ry="6.44" transform="rotate(-30 6.9 7.7)"/><ellipse cx="6.9" cy="7.71" fill="#A1A9C9" rx="2.25" ry="3.92" transform="rotate(-30 6.9 7.7)"/></g><g transform="matrix(-1 0 0 1 217.49 347.06)"><path fill="#A1A9C9" d="M9.9 13.49l7.66-4.55L6.7 2.66z"/><ellipse cx="6.7" cy="7.94" fill="#FFF" rx="3.72" ry="6.44" transform="rotate(-30 6.7 7.94)"/><ellipse cx="6.7" cy="7.94" fill="#A1A9C9" rx="2.25" ry="3.92" transform="rotate(-30 6.7 7.94)"/></g><g transform="matrix(-1 0 0 1 485.83 192.97)"><path fill="#A1A9C9" d="M10.01 13.05l7.65-4.55-10.9-6.28z"/><ellipse cx="6.78" cy="7.44" fill="#FFF" rx="3.72" ry="6.44" transform="rotate(-30 6.78 7.44)"/><ellipse cx="6.78" cy="7.44" fill="#A1A9C9" rx="2.25" ry="3.92" transform="rotate(-30 6.78 7.44)"/></g><g transform="matrix(-1 0 0 1 520.42 172.34)"><path fill="#A1A9C9" d="M9.64 13.6l7.66-4.56L6.45 2.76z"/><ellipse cx="6.45" cy="8.01" fill="#FFF" rx="3.72" ry="6.44" transform="rotate(-30 6.45 8)"/><ellipse cx="6.45" cy="8.01" fill="#A1A9C9" rx="2.25" ry="3.92" transform="rotate(-30 6.45 8)"/></g><g transform="matrix(-1 0 0 1 182.37 367.46)"><path fill="#A1A9C9" d="M10.17 13.43l7.65-4.55-10.9-6.27z"/><ellipse cx="6.92" cy="7.87" fill="#FFF" rx="3.72" ry="6.44" transform="rotate(-30 6.92 7.87)"/><ellipse cx="6.92" cy="7.87" fill="#A1A9C9" rx="2.25" ry="3.92" transform="rotate(-30 6.92 7.87)"/></g><g transform="matrix(-1 0 0 1 450.19 212.62)"><path fill="#A1A9C9" d="M9.7 13.75l7.7-4.55L6.5 2.92z"/><ellipse cx="6.51" cy="8.16" fill="#FFF" rx="3.72" ry="6.44" transform="rotate(-30 6.5 8.16)"/><ellipse cx="6.51" cy="8.16" fill="#A1A9C9" rx="2.25" ry="3.92" transform="rotate(-30 6.5 8.16)"/></g><g transform="matrix(-1 0 0 1 415.6 233.02)"><path fill="#A1A9C9" d="M10.01 13.43l7.65-4.55-10.9-6.27z"/><ellipse cx="6.75" cy="7.85" fill="#FFF" rx="3.72" ry="6.44" transform="rotate(-30 6.75 7.85)"/><ellipse cx="6.75" cy="7.85" fill="#A1A9C9" rx="2.25" ry="3.92" transform="rotate(-30 6.75 7.85)"/></g><g transform="matrix(-1 0 0 1 147.26 387.33)"><path fill="#A1A9C9" d="M9.64 13.64l7.7-4.55-10.9-6.27z"/><ellipse cx="6.46" cy="8.05" fill="#FFF" rx="3.72" ry="6.44" transform="rotate(-30 6.46 8.05)"/><ellipse cx="6.46" cy="8.05" fill="#A1A9C9" rx="2.25" ry="3.92" transform="rotate(-30 6.46 8.05)"/></g><path fill="#B6C6C1" d="M59.05 382.83l58.39 34.47v-3.14l-58.39-34.37z"/><path fill="url(#d)" d="M178.05 121.57l29.82-17.32 44.66 25.84-29.77 17.26zm-178-104L29.87.25 74.53 26.1 44.76 43.35z" transform="matrix(-1 0 0 1 469.38 157.27)"/><g opacity=".8"><path fill="#64C8FF" d="M275.66 279.1l3.2 1.78 3.25-1.89-3.15-1.83z"/><path fill="#D3E0EF" d="M258 268.16l15.83 9.16 2.04-1.2-15.83-9.16zm-27.83 16.06l15.83 9.1 1.41-.83-15.83-9.1zm-3.09 1.73l10.53 6.07 1.47-.84-10.54-6.07zm26.99-15.54l21.43 12.35 2.05-1.2-21.44-12.3z"/><path fill="#64C8FF" d="M254.33 276.38l-5.3-3.04 1.63-.94 5.35 3.04zm15.09 6.8l2.68 1.57-1.68.94-2.67-1.57z"/><path fill="#D3E0EF" d="M247.78 274.08l5.24 3.08-14.3 8.21-5.35-3.03zm18.55 10.88l2.68 1.57-14.2 8.16-2.84-1.63z"/><path fill="#64C8FF" d="M257.06 276.06l11.26 6.49-1.67.94-11.27-6.49z"/><path fill="#D3E0EF" d="M254.07 277.74l11.16 6.59-14.2 8.16-11.43-6.6z"/></g><path fill="#FFF" d="M327.5 220.56l-23.54 45.56-104.92-60.41 23.63-45.98z"/><path fill="#E4E9F6" d="M219.43 266.8l64.3 37.14V291.6l-64.3-37.14z"/><path fill="url(#e)" d="M198 224.59l105.04-60.73 81.29 46.87-104.82 60.83z" transform="matrix(-1 0 0 1 607 -51)"/><path fill="#FFF" d="M533.6 160.8L117.45 400.4v3.14L536.1 162.2z"/><path fill="#E4E9F6" d="M286.51 329.63l-2.78-3.87V291.6l-64.3-37.14v15.48L203.7 279v-70.67l100.26 57.8v67.74z"/><path fill="#216EC1" d="M303.96 346.95L409 286.37V173.6l-81.5 46.98-23.53 45.56z"/><g transform="matrix(-1 0 0 1 237.7 219.42)"><path fill="url(#f)" d="M.7 16c.72-1.24 1.9-1.92 2.62-1.5.73.42.73 1.77.01 3.03-.72 1.25-1.9 1.92-2.63 1.5-.72-.42-.72-1.77 0-3.02z"/><ellipse cx="25.39" cy="3.33" fill="#FD6F8D" rx="1.52" ry="2.62" transform="rotate(-150 25.4 3.33)"/><path fill="url(#g)" d="M12.97 8.94c.72-1.25 1.9-1.92 2.62-1.5.73.42.73 1.77 0 3.02-.72 1.25-1.9 1.93-2.62 1.51-.72-.42-.73-1.77 0-3.03z"/></g><path fill="url(#h)" d="M.21 17.98L29.98.68 74.63 26.5 44.86 43.77z" transform="matrix(-1 0 0 1 220.63 301.02)"/><g opacity=".8"><path fill="#F68383" d="M204.8 319.27l3.15 1.83 3.3-1.93-3.15-1.84z"/><path fill="#D3E0EF" d="M187.09 308.34l15.83 9.15 2.1-1.2-15.84-9.1zm-27.83 16.06l15.83 9.1 1.46-.84-15.82-9.1zm-3.04 1.78l10.53 6.06 1.47-.83-10.53-6.07zm26.99-15.59l21.44 12.34 2.04-1.2-21.44-12.3z"/><path fill="#F68383" d="M183.47 316.55l-5.34-3.03 1.67-.94 5.3 3.03zm15.1 6.8l2.67 1.57-1.68.94-2.67-1.57z"/><path fill="#D3E0EF" d="M176.87 314.25l5.3 3.08-14.37 8.27-5.3-3.09zm18.55 10.88l2.67 1.57-14.15 8.16-2.83-1.62z"/><path fill="#F68383" d="M186.2 316.24l11.21 6.48-1.62.94-11.27-6.48z"/><path fill="#D3E0EF" d="M183.16 317.91l11.16 6.6-14.2 8.15-11.38-6.54z"/></g><g transform="matrix(-1 0 0 1 150.85 211.4)"><ellipse cx="15.21" cy="42.42" fill="#F68383" rx="14.95" ry="9.21"/><path fill="#E4E9F7" d="M.38 42.87zm29.67.22v-.22.22z"/><path fill="#F68383" d="M15.21 51.63c-7.64 0-13.93-3.6-14.83-8.2l2.8 17.06h.12c.79 3.6 5.73 6.4 11.8 6.4 6.63 0 11.92-3.37 11.92-7.4l2.8-15.72c-.9 4.49-7.07 7.86-14.6 7.86z"/><path fill="#FFF" d="M14.65 36.8c-6.97 0-12.59 3.49-12.59 7.75 0 1.24.45 2.36 1.35 3.48 2.7 2.25 6.97 3.6 11.8 3.6 3.15 0 5.96-.57 8.43-1.58 2.25-1.34 3.6-3.36 3.6-5.5 0-4.26-5.62-7.74-12.59-7.74z"/><path fill="#BEF5E7" d="M37.4 4.92C36.47-.9 31.95.38 29.29 2.49c-2.65 2.1-1.17 7.36-2.98 9-1.81 1.62-5.5 1.02-7.65 5.35-2.16 4.32.7 5.4.12 7.7-.6 2.28-5.66.29-7.42 7.15-1.77 6.87 5.28 7.97 3.94 11.81-.12.35-.25.67-.39.99l.38 1.28.25-.46s.76-1.59 3.13-1.4c4.48-.18 7.66-2.11 9.54-5.81 2.81-5.55-1.53-6.32-.12-9.1 1.41-2.77 3.45-1.2 5.61-5.52 2.16-4.33-2.01-5.75-.27-9.83 1.75-4.08 4.94-2.92 3.99-8.73z"/></g><path fill="url(#i)" d="M405.86 419.58l76.12-44.06 97.34 55.45-78.07 44.46z" transform="matrix(-1 0 0 1 607 -51)"/><path fill="#182F93" d="M409 286.37l-105.04 60.58V313L409 252.43z" opacity=".3"/><path fill="#7CD7C0" d="M136.04 257.26s-.24 1.01-.59 2.27l-.98-.32c.38-1.07.7-2.35.82-3.82.37-4.49-7.49-3.74-7.49-11.59s6-7.1 6-9.72c0-2.61-3.38-2.99-2.25-8.22 1.12-5.23 5.24-5.6 6.73-7.85 1.5-2.24-1.54-7.48.73-10.47s6.76-5.6 9.38.38c2.62 5.98-1.12 5.6-1.87 10.46-.75 4.86 4.12 5.24 3 10.47-1.13 5.23-3.75 4.11-4.5 7.48-.75 3.36 4.12 2.99 2.62 9.71-1 4.49-3.87 7.44-8.63 8.86-2.59.45-2.97 2.36-2.97 2.36z"/><g opacity=".3"><path fill="url(#j)" d="M79.82 17.82L62.27 7.7.17 76.81v7.87l12.88 7.43z" transform="matrix(-1 0 0 1 409.16 201.68)"/><path fill="url(#k)" d="M.16 55.04v12.78L56.95 4.63 49.38.27z" transform="matrix(-1 0 0 1 409.16 201.68)"/></g><path fill="url(#l)" d="M67.43 427.43l23.13-5.53-64.36-37.75 81.5-18.58 69.7 40.07 52.68 30.3-47.28 27.26-40.14 9.08z" opacity=".15" transform="matrix(-1 0 0 1 607 -51)"/><path fill="#FFF" d="M136.41 256.51a81.99 81.99 0 0 1-.9 3.33l-1.66-.48 1.44-3.6c.75-7.32 1.62-13.93 2.62-19.8 1.1-6.56 4.18-15.44 5.24-23.93-.28 7.88-2.76 15.66-4.12 23.92-.72 4.42-1.6 11.28-2.62 20.56z"/><path fill="#182F93" d="M271.78 328.36v-21.64L214 273.07l8.13-4.71 61.68 35.58v31.34z" opacity=".3"/><path fill="#216EC1" d="M521.2 281.56v38.03l-94.44 54.56v-38.18z"/><path fill="#216EC1" d="M423.3 374.83l46.65-27.1v37.15l-46.65 27.14z"/><path fill="url(#m)" d="M179.92 89.18l-81.76 47.08v37.24l81.76-46.97z" transform="matrix(-1 0 0 1 521.46 238.47)"/><path fill="#FFF" d="M341.54 327.65l81.76 47.08 46.65-26.89-31.92-18.36 83.17-47.92-49.47-28.82z"/><path fill="#2794D8" d="M521.2 267.86l-83.17 47.91 1.22.7 81.95-47.07z" opacity=".8"/><path fill="#50C0E4" d="M469.95 334.14l-31.92-18.37 83.17-47.91-49.47-28.82-130.19 74.9 81.76 47.08z" opacity=".8"/><path fill="#2794D8" d="M469.95 334.14l-46.65 26.88v1.65l46.65-26.94z" opacity=".8"/><path fill="#FFF" d="M341.54 313.94l81.76 47.08v1.65l-81.76-47.08z"/><path fill="#50C0E4" d="M460.95 302.57l-16.04 9.24h-36.3l16.38-9.24z" opacity=".8"/><path fill="#D3E0EF" d="M385.72 333.25L420.94 313c.9-.52 2-.52 2.83 0l16.2 9.31a.93.93 0 0 1 0 1.62l-35.22 20.35c-.9.53-2 .53-2.89 0l-16.19-9.36c-.58-.37-.58-1.3.05-1.67z"/><path fill="#FFF" d="M385.72 332.25l35.22-20.3c.9-.52 2-.52 2.83 0l16.2 9.32a.93.93 0 0 1 0 1.62l-35.22 20.35c-.9.52-2 .52-2.89 0l-16.19-9.37a.95.95 0 0 1 .05-1.62z"/><g transform="matrix(-1 0 0 1 440.15 228.53)"><path fill="#F3F8FF" d="M47.83 72.44l-16.46 9.41c-.68.42-1.52.42-2.25 0l-14.26-8.2c-.52-.27-.47-1 0-1.32l16.46-9.46a2.18 2.18 0 0 1 2.25 0l14.2 8.2a.8.8 0 0 1 .06 1.37z"/><path fill="#F3F8FF" d="M31.84 82.85a3.3 3.3 0 0 1-3.25 0L15.33 75.2a3.23 3.23 0 0 1-1.62-2.82c0-.74.26-1.42.73-1.94l6.34-7.32a4.69 4.69 0 0 0 1.16-3.09v-3.66l16.5 9.47v3.71c0 1.15-.41 2.25-1.15 3.09l-6.34 7.32a2.97 2.97 0 0 0-.73 1.94c.05.78.94 1.3 1.62.94"/><path fill="#D3E0EF" d="M30.95 79.92l6.34-7.32a4.69 4.69 0 0 0 1.16-3.1V58l.89-.57v12.7c0 1.16-.42 2.26-1.16 3.1l-6.91 7.94c-.1.16-.21.32-.21.53 0 .15.15.26.26.15l16.4-9.41c.21-.16.37-.37.37-.63v1.26c0 .26-.16.52-.37.62L31.9 82.8c-.74.42-1.63-.1-1.63-.94 0-.68.26-1.4.68-1.93z"/><path fill="#FFF" d="M1.65 2.45L4.54.78l.05-.06a2.17 2.17 0 0 1 2.04 0L60.14 31.6a6.26 6.26 0 0 1 3.15 5.44v36.93a2.1 2.1 0 0 1-1.1 1.83l-2.94 1.67.21-2.1L6.63 44.93a6.26 6.26 0 0 1-3.14-5.44V3.18l-1.84-.73z"/><path fill="#FFF" d="M57.05 33.42L3.55 2.55A2.1 2.1 0 0 0 .4 4.38v36c0 2.24 1.2 4.28 3.14 5.43l53.51 30.81a2.1 2.1 0 0 0 3.15-1.83V38.8a6.35 6.35 0 0 0-3.15-5.38z"/><path fill="#4A5ABA" d="M57.05 33.42L3.55 2.55A2.1 2.1 0 0 0 .4 4.38v36c0 2.24 1.2 4.28 3.14 5.43l53.51 30.81a2.1 2.1 0 0 0 3.15-1.83V38.8a6.35 6.35 0 0 0-3.15-5.38z"/><path fill="#FFF" d="M60.14 70.56v5.17A2.1 2.1 0 0 1 57 77.57L3.49 46.75a6.26 6.26 0 0 1-3.15-5.44v-5.17l59.8 34.42z"/><ellipse cx="30.23" cy="57.63" fill="#F3F8FF" rx="1.26" ry="2.15" transform="rotate(150 30.23 57.63)"/><path fill="#FFF" d="M18.72 20.82v17.16c0 .84.46 1.62 1.2 2.04l22.61 12.7a.6.6 0 0 0 .9-.52V35.04c0-.84-.46-1.62-1.2-2.04L19.6 20.3a.6.6 0 0 0-.9.52z"/><path fill="#D3E0EF" d="M22.33 36.35c0 .46.25.9.66 1.12l16.16 9.16a.44.44 0 0 0 .66-.38c0-.46-.25-.9-.66-1.12L23 35.97a.44.44 0 0 0-.66.38z"/><path fill="#FD6F8D" d="M22.33 36.35c0 .46.25.9.66 1.12l8.48 4.81.07-1.47L23 35.97a.44.44 0 0 0-.66.38z"/><path fill="url(#n)" d="M6.03 11.36v.06c0 .43.23.82.6 1.04l10.4 5.89a.46.46 0 0 0 .68-.37c.03-.44-.2-.87-.58-1.09L6.68 10.98a.44.44 0 0 0-.65.38zm-2.41-4.2c0 .46.25.89.65 1.12l16.16 9.16a.44.44 0 0 0 .66-.38c0-.47-.25-.9-.66-1.13L4.27 6.77a.44.44 0 0 0-.65.38z" transform="translate(18.72 20.18)"/></g><path fill="url(#o)" d="M.13 221.38l59.48-34.4 46.04 26.55-59.36 34.45z" transform="matrix(-1 0 0 1 368.73 -51)"/><path fill="url(#p)" d="M59.66.1L59.6.09.13 34.48l2.58 1.49L59.6 3.13l.05.03z" transform="matrix(-1 0 0 1 368.73 135.9)"/><path fill="url(#q)" d="M59.66 3.16l43.55 24.9 2.44-1.43-46-26.52z" transform="matrix(-1 0 0 1 368.73 135.9)"/><path fill="url(#r)" d="M59.58.17l.03 186.81 46.04 26.55.08-186.76z" opacity=".6" transform="matrix(-1 0 0 1 368.73 -51)"/><path fill="url(#s)" d="M59.58.17l.03 186.81L.1 221.44.17 34.68z" opacity=".6" transform="matrix(-1 0 0 1 368.73 -51)"/><path fill="url(#t)" d="M.09 34.62l.03 186.82 46.04 26.54.09-186.75z" opacity=".6" transform="matrix(-1 0 0 1 368.73 -51)"/><path fill="url(#u)" d="M511.83 217.27l-71.5 47.48-69-38.16v-11.8l68.16-39.72z" transform="matrix(-1 0 0 1 910.16 -51)"/></g></svg>