<svg xmlns="http://www.w3.org/2000/svg" viewBox="0 0 1440 320">
  <path fill="#0779e4" fill-opacity="1" d="M0,96L34.3,122.7C68.6,149,137,203,206,234.7C274.3,267,343,277,411,256C480,235,549,181,617,154.7C685.7,128,754,128,823,144C891.4,160,960,192,1029,197.3C1097.1,203,1166,181,1234,154.7C1302.9,128,1371,96,1406,80L1440,64L1440,0L1405.7,0C1371.4,0,1303,0,1234,0C1165.7,0,1097,0,1029,0C960,0,891,0,823,0C754.3,0,686,0,617,0C548.6,0,480,0,411,0C342.9,0,274,0,206,0C137.1,0,69,0,34,0L0,0Z"></path>
</svg>