<svg width="30" height="30" xmlns="http://www.w3.org/2000/svg">

 <g>
  <title>background</title>
  <rect fill="none" id="canvas_background" height="402" width="582" y="-1" x="-1"/>
 </g>
 <g>
  <title>Layer 1</title>
  <path fill="#f05050" id="svg_1" d="m23,14c-0.733,0 -1.414,-0.208 -2.005,-0.554c-0.59,0.343 -1.265,0.554 -1.995,0.554c-0.732,0 -1.409,-0.212 -2,-0.556c-0.591,0.344 -1.268,0.556 -2,0.556c-0.732,0 -1.409,-0.212 -2,-0.556c-0.591,0.344 -1.268,0.556 -2,0.556c-0.73,0 -1.405,-0.211 -1.995,-0.554c-0.591,0.346 -1.272,0.554 -2.005,0.554c-0.727,0 -1.4,-0.21 -1.988,-0.55c-0.592,0.347 -1.278,0.55 -2.012,0.55l0,11c0,1.105 0.895,2 2,2l12,0l0,-10l6,0l0,10l2,0c1.105,0 2,-0.895 2,-2l0,-11c-0.734,0 -1.42,-0.203 -2.012,-0.55c-0.588,0.34 -1.261,0.55 -1.988,0.55zm-10,9l-6,0l0,-6l6,0l0,6z"/>
  <path fill="#f05050" id="svg_2" d="m26,6l-22,0l0,-1c0,-1.105 0.895,-2 2,-2l18,0c1.105,0 2,0.895 2,2l0,1z"/>
  <path fill="#f05050" id="svg_4" d="m20,6l-3,0l0,4c0,1.105 0.895,2 2,2s2,-0.895 2,-2l-1,-4z"/>
  <path fill="#f05050" id="svg_6" d="m26,6l-3,0l2,4c0,1.105 0.895,2 2,2s2,-0.895 2,-2l-3,-4z"/>
  <path fill="#f05050" id="svg_8" d="m20,6l-3,0l0,4c0,1.105 0.895,2 2,2s2,-0.895 2,-2l-1,-4z"/>
  <path fill="#f05050" id="svg_10" d="m10,6l3,0l0,4c0,1.105 -0.895,2 -2,2s-2,-0.895 -2,-2l1,-4z"/>
  <path fill="#f05050" id="svg_12" d="m4,6l3,0l-2,4c0,1.105 -0.895,2 -2,2s-2,-0.895 -2,-2l3,-4z"/>
 </g>
</svg>