<svg width="24" height="24" xmlns="http://www.w3.org/2000/svg">

 <g>
  <title>background</title>
  <rect fill="none" id="canvas_background" height="402" width="582" y="-1" x="-1"/>
 </g>
 <g>
  <title>Layer 1</title>
  <path fill="#29a347" id="svg_1" d="m8,2l-4,0c-1.1,0 -2,0.9 -2,2l0,4c0,1.1 0.9,2 2,2l4,0c1.1,0 2,-0.9 2,-2l0,-4c0,-1.1 -0.9,-2 -2,-2z"/>
  <path fill="#29a347" id="svg_2" d="m20,2l-4,0c-1.1,0 -2,0.9 -2,2l0,4c0,1.1 0.9,2 2,2l4,0c1.1,0 2,-0.9 2,-2l0,-4c0,-1.1 -0.9,-2 -2,-2z"/>
  <path fill="#29a347" id="svg_3" d="m8,14l-4,0c-1.1,0 -2,0.9 -2,2l0,4c0,1.1 0.9,2 2,2l4,0c1.1,0 2,-0.9 2,-2l0,-4c0,-1.1 -0.9,-2 -2,-2z"/>
  <path fill="#29a347" id="svg_4" d="m20,14l-4,0c-1.1,0 -2,0.9 -2,2l0,4c0,1.1 0.9,2 2,2l4,0c1.1,0 2,-0.9 2,-2l0,-4c0,-1.1 -0.9,-2 -2,-2z"/>
 </g>
</svg>