<svg width="349" height="310" xmlns="http://www.w3.org/2000/svg" xmlns:xlink="http://www.w3.org/1999/xlink"><defs><linearGradient x1="26.564%" y1="3.984%" x2="82.959%" y2="75.374%" id="a"><stop stop-color="#5D89E5" offset="0%"/><stop stop-color="#3059C0" offset="100%"/></linearGradient><filter x="-1.5%" y="-2.7%" width="103.1%" height="105.3%" filterUnits="objectBoundingBox" id="b"><feGaussianBlur stdDeviation="1.047" in="SourceGraphic"/></filter><linearGradient x1="55.022%" y1="28.68%" x2="26.678%" y2="148.86%" id="c"><stop stop-color="#0041BF" stop-opacity=".1" offset="0%"/><stop stop-color="#00CFFF" stop-opacity=".9" offset="100%"/></linearGradient><linearGradient x1="79.663%" y1="-75.35%" x2="15.006%" y2="197.8%" id="d"><stop stop-color="#0041BF" offset="0%"/><stop stop-color="#00CFFF" stop-opacity=".9" offset="100%"/></linearGradient><linearGradient x1="25.061%" y1="34.435%" x2="92.652%" y2="50%" id="e"><stop stop-color="#FFF" offset="0%"/><stop stop-color="#E2F0FF" stop-opacity=".9" offset="47.288%"/><stop stop-color="#338BE6" stop-opacity=".767" offset="100%"/></linearGradient><linearGradient x1="50%" y1="0%" x2="50%" y2="100%" id="g"><stop stop-color="#1D2C41" stop-opacity=".49" offset="0%"/><stop stop-color="#1D2541" stop-opacity=".308" offset="100%"/></linearGradient><path d="M14.653.344c-1.554-.89-3.036.005-3.292 2L.04 88.784c-.262 1.983.796 4.333 2.345 5.228l95.135 54.536c1.554.889 3.036-.006 3.298-1.994l11.32-86.48c.262-1.989-.796-4.344-2.345-5.233L14.653.344z" id="f"/><linearGradient x1="27.83%" y1="108.461%" x2="55.26%" y2="36.784%" id="h"><stop stop-color="#0041BF" stop-opacity=".1" offset="0%"/><stop stop-color="#00CFFF" stop-opacity=".9" offset="100%"/></linearGradient><linearGradient x1="45.581%" y1="117.22%" x2="64.088%" y2="-156.1%" id="i"><stop stop-color="#0041BF" stop-opacity=".1" offset="0%"/><stop stop-color="#00CFFF" stop-opacity=".9" offset="100%"/></linearGradient><linearGradient x1="14.511%" y1="446.08%" x2="63.374%" y2="-93.89%" id="j"><stop stop-color="#0041BF" stop-opacity=".1" offset="0%"/><stop stop-color="#00CFFF" stop-opacity=".9" offset="100%"/></linearGradient><linearGradient x1="35.014%" y1="219.56%" x2="83.857%" y2="-320.41%" id="k"><stop stop-color="#0041BF" stop-opacity=".1" offset="0%"/><stop stop-color="#00CFFF" stop-opacity=".9" offset="100%"/></linearGradient><filter x="-5.8%" y="-2.7%" width="111.6%" height="105.5%" filterUnits="objectBoundingBox" id="l"><feGaussianBlur stdDeviation=".746" in="SourceGraphic"/></filter><linearGradient x1="42.49%" y1="86.251%" x2="64.28%" y2="-18.938%" id="m"><stop stop-color="#0041BF" stop-opacity=".1" offset="0%"/><stop stop-color="#00CFFF" stop-opacity=".9" offset="100%"/></linearGradient><linearGradient x1="62.05%" y1="28.83%" x2="38.67%" y2="73.037%" id="n"><stop stop-color="#6499EF" offset="0%"/><stop stop-color="#3C88EB" offset="97.758%"/></linearGradient><linearGradient x1="80.528%" y1="45.12%" x2="20.223%" y2="53.6%" id="o"><stop stop-color="#83AFF6" offset="0%"/><stop stop-color="#3B79C9" offset="100%"/></linearGradient><linearGradient x1="40.916%" y1="100%" x2="62.685%" y2="18.014%" id="p"><stop stop-color="#FFF" offset="0%"/><stop stop-color="#FFF" stop-opacity=".044" offset="100%"/></linearGradient><filter x="-3.3%" y="-5.7%" width="106.6%" height="111.4%" filterUnits="objectBoundingBox" id="q"><feGaussianBlur stdDeviation="1.047" in="SourceGraphic"/></filter><linearGradient x1="0%" y1="50%" x2="92.401%" y2="67.024%" id="r"><stop stop-color="#E8EEFF" offset="0%"/><stop stop-color="#CAD5F6" offset="100%"/></linearGradient><linearGradient x1="36.117%" y1="32.314%" x2="55.396%" y2="74.498%" id="s"><stop stop-color="#6499EF" offset="0%"/><stop stop-color="#3C88EB" offset="100%"/></linearGradient><linearGradient x1="77.717%" y1="75.197%" x2="50%" y2="0%" id="t"><stop stop-color="#FFF" offset="0%"/><stop stop-color="#FFF" stop-opacity=".044" offset="100%"/></linearGradient><filter x="-6.9%" y="-6.1%" width="113.8%" height="112.1%" filterUnits="objectBoundingBox" id="u"><feGaussianBlur stdDeviation=".746" in="SourceGraphic"/></filter><linearGradient x1="24.39%" y1="172.107%" x2="74.39%" y2="-63.901%" id="v"><stop stop-color="#0041BF" stop-opacity=".1" offset="0%"/><stop stop-color="#00CFFF" stop-opacity=".9" offset="100%"/></linearGradient><linearGradient x1="50%" y1="0%" x2="50%" y2="100%" id="w"><stop stop-color="#FAD961" offset="0%"/><stop stop-color="#F76B1C" offset="100%"/></linearGradient></defs><g fill="none" fill-rule="evenodd"><path d="M348.163 280.829v2.221L31.886 104.043a23.04 23.04 0 0 1-8.57-8.472 22.954 22.954 0 0 1-2.654-16.198 23.414 23.414 0 0 0 3.342 14.174 23.52 23.52 0 0 0 8.494 8.241l315.665 179.04z" fill="#005496"/><path d="M218.123.91l100.666 60.615c11.129 6.7 14.718 21.153 8.017 32.281a23.52 23.52 0 0 1-8.588 8.35L.078 281.72V.91h218.045z" fill="url(#a)" transform="matrix(-1 0 0 1 348.24 .05)"/><g fill-rule="nonzero"><path d="M16.85 204.466l117.018 67.44c1.95 1.123 5.131 1.123 7.081 0l78.265-45.025c1.95-1.122 1.95-2.955 0-4.077l-117.119-67.408c-1.95-1.123-5.13-1.123-7.075 0l-78.17 44.98c-1.95 1.123-1.95 2.956 0 4.084v.006z" fill-opacity=".027" fill="#005496" filter="url(#b)" transform="translate(43.491 35.995)"/><path d="M169.206 271.018c-1.95 1.122-5.131 1.116-7.075 0L45.107 203.57c-1.95-1.128-1.95-2.961 0-4.083l78.164-44.993c1.95-1.116 5.137-1.116 7.081 0l117.119 67.408c1.95 1.123 1.95 2.956 0 4.078l-78.265 45.031v.006z" fill="#FFF"/><path d="M169.206 271.018c-1.95 1.122-5.131 1.116-7.075 0L45.107 203.57c-1.95-1.128-1.95-2.961 0-4.083l78.164-44.993c1.95-1.116 5.137-1.116 7.081 0l117.119 67.408c1.95 1.123 1.95 2.956 0 4.078l-78.265 45.031v.006z" fill="#FFF" opacity=".7"/><path d="M158.006 211.951c-1.822 1.045-4.792 1.045-6.614-.005L41.55 148.643c-1.822-1.044-1.816-2.76 0-3.805l39.01-22.371c1.816-1.045 4.791-1.045 6.607 0l109.937 63.274c1.822 1.045 1.822 2.756 0 3.806l-39.098 22.404z" fill="url(#c)" opacity=".582" transform="translate(43.491 35.995)"/><path d="M83.71 207.938a4.714 4.714 0 0 1-4.246 0L43.62 187.194c-1.17-.666-1.164-1.772 0-2.444L68.65 170.4a4.714 4.714 0 0 1 4.246 0l35.9 20.722c1.17.667 1.17 1.767 0 2.444L83.71 207.938z" fill="url(#d)" opacity=".253" transform="translate(43.491 35.995)"/><path d="M.162 165.587v4.56c-.023.756.456 1.517 1.448 2.09l117.024 67.44c1.95 1.129 5.13 1.129 7.075.006l78.27-45.03c.947-.545 1.427-1.262 1.449-1.979h.005v-4.66c-.027.722-.501 1.433-1.454 1.977l-78.264 45.031c-1.95 1.123-5.131 1.117-7.076 0L1.61 167.576c-.953-.556-1.432-1.278-1.45-2l.002.01z" fill="url(#e)" transform="translate(43.491 35.995)"/><path d="M145.913 36.806c-1.956-1.122-3.828.012-4.156 2.517l-14.285 109.073c-.334 2.5 1.003 5.477 2.964 6.6l117.714 67.496c1.956 1.123 3.828-.01 4.156-2.516l14.29-109.128c.335-2.5-1.002-5.472-2.963-6.6l-117.72-67.442z" fill="#3873DF"/><path d="M144.247 36.38c.757-.472 1.724-.48 2.712.086l117.72 67.442c1.961 1.128 3.298 4.1 2.964 6.6l-14.29 109.128c-.232 1.769-1.234 2.854-2.49 2.944.74-.461 1.28-1.365 1.443-2.604l14.29-109.128c.335-2.5-1.002-5.472-2.963-6.6l-117.72-67.442c-.575-.33-1.143-.464-1.666-.427z" fill-opacity=".413" fill="#BBBCCB"/><path d="M141.757 39.323l-14.285 109.073c-.334 2.5 1.003 5.477 2.964 6.6l117.714 67.496c1.956 1.123 3.828-.01 4.156-2.516l14.29-109.128c.335-2.5-1.002-5.472-2.963-6.6l-117.72-67.442c-1.956-1.122-3.828.012-4.156 2.517zm4.016 3.055l115.119 65.959c.69.388 1.37 1.9 1.253 2.777L248.29 216.92l-115.113-66.008c-.691-.394-1.365-1.905-1.254-2.788l13.856-105.74-.006-.006z" fill="#191C42"/><g opacity=".7"><g opacity=".507" fill-rule="evenodd" transform="translate(143.27 54.345)"><use fill="#004CB8" xlink:href="#f"/><use fill="url(#g)" xlink:href="#f"/></g><g opacity=".3"><path d="M6.19.578c-.635-.361-1.243 0-1.349.816L.217 36.671c-.1.81.335 1.777.964 2.138l35.2 20.2c.634.36 1.241 0 1.347-.817l4.624-35.293c.106-.811-.328-1.778-.963-2.139L6.189.578z" fill="url(#h)" transform="translate(154.916 63.216)"/><path d="M45.7 59.275c-.634-.361-1.236 0-1.336.822l-.87 6.583c-.11.811.324 1.778.959 2.139l35.199 20.2c.635.36 1.242-.006 1.348-.818l.864-6.61c.105-.806-.324-1.767-.959-2.134L45.701 59.275z" fill="url(#i)" transform="translate(154.916 63.216)"/><path d="M51.083 27.082c-.29-.167-.563 0-.613.372l-.59 4.556c-.045.366.15.8.434.966l15.99 9.178c.289.166.567 0 .612-.373l.602-4.555c.044-.372-.15-.805-.44-.972l-15.995-9.166v-.006z" fill="url(#j)" transform="translate(154.916 63.216)"/><path d="M67.111 60.47c-.284-.167-.557 0-.613.366l-.585 4.555c-.05.367.145.806.435.967l15.99 9.177c.289.167.562 0 .612-.366l.596-4.561c.05-.372-.145-.806-.434-.972L67.11 60.469z" fill="url(#k)" transform="translate(154.916 63.216)"/></g><path d="M154.905 105.976c-.29-.167-.563 0-.613.372l-.596 4.55c-.05.366.15.805.434.972l15.99 9.171c.29.167.568 0 .612-.366l.602-4.556c.045-.372-.15-.81-.44-.972l-15.99-9.171z" fill="#191C42" opacity=".4"/></g><path d="M136.572 61.065l-5.214 39.815-.92 7.044a2.96 2.96 0 0 0 .647 2.172c.106.123.223.228.34.323.066.05.128.1.195.139l27.438 15.693c.195.111.39.167.568.167h.017a.91.91 0 0 0 .58-.206c.066-.055.127-.11.183-.183.16-.234.266-.502.306-.783l.925-7.044 5.215-39.815 1.989-15.183a2.765 2.765 0 0 0-.25-1.527 2.795 2.795 0 0 0-.653-.906 1.783 1.783 0 0 0-.278-.206l-27.433-15.738a1.237 1.237 0 0 0-.574-.172 1.06 1.06 0 0 0-.54.161c-.279.19-.485.539-.546 1.017l-1.995 15.232z" fill-opacity=".213" fill="#043052" filter="url(#l)" transform="translate(43.491 35.995)"/><path d="M129.566 65.37l-5.214 39.814-.92 7.044a2.96 2.96 0 0 0 .647 2.173c.105.122.222.227.34.322.066.05.128.1.194.139l27.439 15.693c.195.111.39.167.568.167h.017a.91.91 0 0 0 .579-.205c.067-.056.128-.112.184-.184.16-.234.265-.502.306-.783l.925-7.044 5.215-39.815 1.989-15.183a2.765 2.765 0 0 0-.251-1.527 2.795 2.795 0 0 0-.652-.906 1.783 1.783 0 0 0-.278-.205L133.22 49.13a1.237 1.237 0 0 0-.574-.172 1.06 1.06 0 0 0-.54.161c-.279.19-.485.54-.546 1.017l-1.995 15.233zM172.03 106.053c-.29-.166-.558 0-.614.372l-1.643 12.583c-.05.372.145.806.434.972l20.96 12.078c.283.166.556 0 .612-.373l1.644-12.594c.05-.366-.145-.8-.435-.966l-20.959-12.072z" fill="url(#m)" opacity=".2" transform="translate(43.491 35.995)"/><path d="M168.003 87.787c-.825-.472-1.605 0-1.744 1.056l-8.535 65.175c-.14 1.055.423 2.294 1.242 2.766l28.803 16.477c.82.467 1.605-.005 1.739-1.055l8.53-65.13c.138-1.056-.419-2.295-1.238-2.767l-28.803-16.522h.006z" fill="#FFF"/><path d="M122.773 52.848l-2.095 15.988 31.784 18.188 2.09-15.944c.133-1.055-.424-2.294-1.243-2.766l-28.798-16.522c-.819-.478-1.604 0-1.738 1.056z" fill="url(#n)" transform="translate(43.491 35.995)"/><path d="M169.574 92.535c-.21-.123-.408 0-.44.268l-1.292 9.873c-.037.267.107.577.311.695l7.264 4.153c.204.118.402 0 .44-.267l1.286-9.862c.038-.268-.107-.578-.31-.695l-7.26-4.17v.005zm10.594 8.263c-.129-.073-.251 0-.273.166l-.201 1.561c-.022.167.061.361.19.434l9.331 5.188c.128.072.245 0 .268-.166l.206-1.556c.022-.167-.067-.355-.195-.428l-9.326-5.2z" fill="#FFF" opacity=".5"/><path d="M123.035 75.235c-.184-.11-.362 0-.39.24l-.3 2.277c-.034.239.094.517.278.628l13.566 7.71c.189.106.367 0 .395-.244l.295-2.267c.034-.233-.094-.516-.278-.627l-13.566-7.722v.005z" fill="url(#o)" opacity=".4" transform="translate(43.491 35.995)"/><path d="M179.392 104.762c-.09-.056-.179 0-.19.11l-.217 1.64c-.011.11.045.25.134.3l6.513 3.622c.089.055.245-.545.256-.656l.145-1.089c.01-.11-.045-.244-.134-.3l-6.502-3.622-.005-.005z" fill="#FFF" opacity=".5"/><path d="M115.196 110.634l-.964 7.388c-.139 1.056.424 2.295 1.243 2.767l28.803 16.477c.819.467 1.605-.006 1.744-1.056l.964-7.394-31.784-18.182h-.006z" fill="url(#n)" transform="translate(43.491 35.995)"/><g opacity=".876"><path d="M183.853 144.79c-.195-.11-.38 0-.407.245l-.312 2.344c-.028.245.1.539.295.645l3.26 1.983c.194.11.378 0 .412-.25l.306-2.333c.028-.245-.1-.534-.295-.645l-3.26-1.989z" fill="#277DDA"/><path d="M176.922 126.592c-.211-.117-.406 0-.445.267l-.335 2.555c-.033.261.112.578.318.694l1.877 1.045c.207.116.407 0 .446-.267l.329-2.539c.033-.266-.112-.583-.318-.7l-1.872-1.055z" fill="#A65EE6"/><path d="M174.398 141.474c-.15 1.15.457 2.544 1.365 3.055.908.522 1.766.045 1.922-1.155.156-1.2-.456-2.545-1.365-3.061-.913-.517-1.766-.04-1.922 1.166v-.005z" fill="#47C860"/><path d="M185.502 133.196c-.145 1.15.462 2.54 1.37 3.056.908.517 1.766.039 1.922-1.161.156-1.2-.456-2.544-1.37-3.056-.908-.522-1.76-.038-1.917 1.161h-.005z" fill="#FDB63D"/><path d="M167.3 123.42c-.15 1.15.463 2.538 1.371 3.055.908.516 1.76.038 1.917-1.161.161-1.2-.457-2.545-1.365-3.056-.908-.522-1.76-.039-1.922 1.161z" fill="#459FFF"/><path fill="#CA3E75" d="M165.055 138.196l3.377 1.939-1.143-5.122z"/></g><path d="M184.102 139.072l.128-.961c.011-.095.067-.15.15-.106l3.16 1.811c.088.039.116.183.105.278l-.128.96c-.011.095-.067.145-.15.106l-3.16-1.81c-.038-.045-.116-.184-.105-.278zm-1.9 12.521l.123-.96c.01-.095.066-.145.15-.106l3.164 1.81c.084.045.112.184.1.278l-.127.961c-.012.095-.062.15-.15.106l-3.16-1.811a.5.5 0 0 1-.106-.278h.006zm-7.243-17.893l.123-.961c.017-.095.067-.145.156-.1l3.159 1.805c.089.044.111.183.1.278l-.122.966c-.012.095-.067.145-.156.1l-3.16-1.805c-.038-.045-.11-.183-.1-.278v-.005zm-1.71 13.055l.128-.962c.011-.094.061-.144.15-.105l3.16 1.811c.089.044.11.183.105.278l-.128.96c-.011.095-.067.145-.156.106l-3.159-1.81c-.039-.045-.111-.184-.1-.278zm-7.126-18.194l.129-.961c.01-.095.066-.145.15-.1l3.159 1.805c.089.045.117.184.106.278l-.128.961c-.012.1-.067.15-.15.111l-3.16-1.816c-.044-.045-.117-.178-.106-.278zm-1.71 13.055l.128-.961c.011-.095.067-.15.15-.106l3.16 1.811c.089.04.117.184.105.278l-.128.961c-.01.095-.061.145-.15.106l-3.16-1.811a.5.5 0 0 1-.105-.278z" fill="#F2F8FF"/><path d="M123.76 119.017c-.157-.095-.307 0-.335.2l-.256 1.927c-.023.206.083.445.24.534l11.515 6.41c.156.09.312 0 .334-.205l.256-1.922c.023-.2-.083-.439-.24-.528l-11.515-6.416z" fill="url(#p)" transform="translate(43.491 35.995)"/><path d="M95.778 241.232l-24.546 14.159c-2.014 1.164-4.562 1.164-6.62 0L3.393 219.983a2.183 2.183 0 0 1-1.113-1.902c0-.787.425-1.514 1.113-1.901l24.49-14.16a6.817 6.817 0 0 1 6.676 0l61.213 35.409a2.183 2.183 0 0 1 1.113 1.902c0 .787-.425 1.514-1.113 1.901h.006z" fill-opacity=".027" fill="#005496" filter="url(#q)" transform="translate(.178 35.995)"/><g transform="translate(.178 209.869)"><path d="M.09 17.274v4.89-1.132a2.175 2.175 0 0 0 1.112 1.913l61.235 35.613c2.015 1.171 4.564 1.171 6.63 0l24.556-14.24a2.19 2.19 0 0 0 1.113-1.913V38.59l-4.453 1.06L32.382 6.015a6.802 6.802 0 0 0-6.679 0L3.69 18.763l-3.6-1.489z" fill="url(#r)"/><path d="M93.623 40.56L69.072 54.8c-2.015 1.171-4.564 1.171-6.623 0L1.197 19.187a2.198 2.198 0 0 1 0-3.825L25.703 1.115a6.789 6.789 0 0 1 6.679 0l61.24 35.614a2.198 2.198 0 0 1 0 3.825v.005z" fill="#FFF"/><path fill="#0B3A81" d="M58.458 51.025l-53.17-30.88L33.924 3.564 87.15 34.448z"/><path d="M19.586 8.169a.407.407 0 0 1 0 .741l-5.36 3.134a.776.776 0 0 1-.846 0 .407.407 0 0 1 0-.742l5.41-3.133c.262-.162.58-.162.796 0z" fill="#83AFF6"/><path d="M14.672 28.744c0 .373-.423.641-.74.43l-3.607-2.075c-.39-.264-.628-.7-.64-1.171 0-.374.423-.636.745-.424l3.607 2.075c.441.212.697.684.635 1.17v-.005z" fill="#FFF"/><ellipse fill="#E4E9F7" cx="76.335" cy="45.076" rx="3.768" ry="2.336"/></g><path d="M60.042 254.437a2.944 2.944 0 0 1-2.67 0L7.568 225.45c-.735-.43-.735-1.128 0-1.552l25.591-14.846a2.944 2.944 0 0 1 2.67 0l49.855 28.987c.734.43.734 1.129 0 1.553l-25.648 14.845h.006z" fill="#FFF"/><path d="M46.733 179.43l-11.078-6.376a2.972 2.972 0 0 0-2.67 0L7.39 187.715c-.735.42-.735 1.109 0 1.534l10.794 6.216 28.549-16.035z" fill="url(#s)" transform="translate(.178 35.995)"/><path d="M18.977 227.986a.833.833 0 0 1-.777 0l-6.007-3.587c-.211-.129-.211-.333 0-.456l6.784-3.855a.871.871 0 0 1 .782 0l6.018 3.593c.211.123.211.333 0 .456l-6.8 3.85zM24.552 219.522a.675.675 0 0 1-.604 0l-1.011-.617c-.165-.095-.165-.257 0-.353l8.241-4.829a.675.675 0 0 1 .604 0l1.028.616c.165.096.165.258 0 .353l-8.258 4.83zm2.695 1.875a.663.663 0 0 1-.6 0l-1.016-.617c-.164-.095-.164-.257 0-.353l10.648-6.274a.675.675 0 0 1 .604 0l1.022.616c.165.095.165.258 0 .353l-10.658 6.275z" fill="#FFF" opacity=".5"/><path d="M85.69 202.178l-6.938-3.962-28.413 16.179 6.927 3.962c.726.419 1.938.419 2.676 0L85.69 203.71c.738-.425.738-1.108 0-1.532z" fill="url(#s)" transform="translate(.178 35.995)"/><g><path d="M52.174 228.554c-.134.093-.117.253.039.352l1.485.934c.156.1.39.11.53.011l2.373-1.545c.134-.093.117-.253-.033-.352l-1.485-.934c-.151-.1-.391-.1-.525-.006l-2.384 1.54z" fill="#277DDA"/><path d="M38.59 226.52c-.144.098-.127.274.046.379l1.619 1.022c.167.11.424.11.57.011l1.3-.923c.145-.1.128-.27-.04-.374l-1.607-1.018a.578.578 0 0 0-.58-.01l-1.307.912z" fill="#A65EE6"/><path d="M47.574 232.661c.731.462 1.864.495 2.5.055.643-.44.587-1.16-.172-1.644-.765-.478-1.865-.495-2.507-.055-.636.446-.58 1.166.179 1.65v-.006z" fill="#47C860"/><path d="M45.502 223.82c.726.461 1.865.494 2.502.054.642-.445.586-1.166-.173-1.65-.765-.472-1.865-.489-2.507-.043-.637.44-.58 1.154.178 1.638z" fill="#FDB63D"/><path d="M48.439 225.86l-.603-.386c-.061-.038-.078-.088-.022-.132l2.227-1.534c.056-.044.157-.016.224.022l.603.385c.061.033.078.088.022.132l-2.228 1.529a.323.323 0 0 1-.223-.017zm7.872 5.19l-.614-.385c-.056-.038-.078-.088-.023-.132l2.228-1.528c.056-.05.162-.022.223.016l.609.385c.056.039.078.088.022.132l-2.233 1.534c-.04.011-.156.017-.218-.022h.006zm-14.532-1.594l-.614-.385c-.056-.039-.073-.088-.017-.132l2.227-1.535c.056-.044.162-.016.224.022l.608.385c.056.033.078.088.017.132l-2.222 1.529c-.045.016-.167.022-.223-.016zm8.374 5.234l-.592-.407c-.061-.038-.078-.093-.017-.137l2.284-1.446c.056-.039.162-.011.223.027l.592.407c.056.044.072.094.017.138l-2.29 1.446a.35.35 0 0 1-.217-.028zm-14.672-1.231l-.614-.385c-.056-.039-.072-.088-.017-.132l2.228-1.534c.056-.044.162-.017.223.022l.609.385c.056.038.078.087.022.131l-2.233 1.535a.368.368 0 0 1-.223-.022h.005zm8.66 5.147l-.615-.385c-.056-.039-.078-.094-.022-.138l2.227-1.528c.056-.044.162-.022.224.016l.608.385c.056.038.078.093.023.137l-2.234 1.53c-.039.01-.156.021-.217-.017h.005z" fill="#E2E3E8"/><path d="M32.556 231.446c.726.462 1.865.495 2.501.055.636-.44.586-1.166-.173-1.644-.765-.478-1.865-.495-2.507-.055-.636.445-.58 1.166.179 1.65v-.006z" fill="#459FFF"/><path fill="#CA3E75" d="M42.214 237.198l2.384-1.633-3.824-.847z"/></g><path d="M65.357 211.135a.709.709 0 0 1-.607 0l-1.03-.59c-.167-.096-.167-.245 0-.336l8.354-4.616a.685.685 0 0 1 .612 0l1.042.59c.167.09.167.24 0 .336l-8.37 4.616z" fill="url(#t)" transform="translate(.178 35.995)"/><path d="M210.92 143.997c-.293-.166-.564 0-.62.367l-1.663 12.593c-.05.367.147.806.44.967l21.199 12.082c.287.166.563 0 .62-.367l1.662-12.599c.05-.366-.147-.805-.44-.972l-21.198-12.07z" fill="#63CC31"/><path d="M213.973 150.189l1.93 1.11c.45.253.804.647 1.01 1.121.209.476.282.997.203 1.558-.068.56-.26.929-.559 1.116-.299.18-.677.141-1.128-.12l-.863-.498-.305 2.35-1.072-.616.79-6.027-.006.006zm1.467 3.517c.395.232.62.136.677-.283a.956.956 0 0 0-.079-.572c-.079-.17-.225-.312-.434-.43l-.717-.414-.17 1.285.718.414h.005zm5.203 6.82l-.198-1.45-1.794-1.043-.52 1.037-1.071-.623 2.68-4.928.84.493 1.118 7.12-1.055-.606zm-1.49-3.484l1.1.635-.304-2.22-.796 1.585zm7.714.606l-2.195 2.736-.3 2.3-1.072-.623.3-2.311-1.22-4.702 1.208.703.711 2.996 1.354-1.801 1.214.702z" fill="#FFF"/><path d="M220.136 62.671c-.353-.2-.688 0-.744.45l-2.556 19.398c-.056.444.179.976.53 1.176l28.638 15.755c.347.2.683 0 .744-.443l2.556-19.41c.056-.444-.184-.976-.531-1.176l-28.637-15.75z" fill-opacity=".161" fill="#043052" filter="url(#u)" transform="translate(.178 35.995)"/><path d="M214.746 64.285c-.352-.2-.688 0-.744.45l-2.556 19.398c-.056.444.18.977.532 1.176l28.637 15.755c.347.2.682 0 .744-.443l2.556-19.41c.056-.444-.185-.976-.531-1.176l-28.638-15.75z" fill="url(#v)" transform="translate(.178 35.995)"/><path fill-opacity=".295" fill="#000" opacity=".382" d="M213.12 108.36l29.794 15.926.617-5.078-29.755-16.163z"/><g opacity=".4"><path d="M236.515 130.217c-.136 1.022.4 2.255 1.209 2.716.803.454 1.561.028 1.698-1.035.142-1.062-.4-2.25-1.208-2.704-.804-.455-1.562-.034-1.699 1.023z" fill="#FFF" opacity=".5"/><path d="M.091 1.648C-.046 2.67.496 3.898 1.3 4.358c.804.455 1.562.029 1.699-1.034.142-1.063-.4-2.25-1.208-2.705C.986.165.228.58.09 1.642v.006z" fill="url(#w)" opacity=".5" transform="translate(234.412 127.478)"/></g></g></g></svg>
