<svg xmlns="http://www.w3.org/2000/svg" width="609" height="470"><defs><linearGradient id="a" x1="63.259%" x2="30.063%" y1="62.305%" y2="29.103%"><stop offset="0%" stop-color="#EEF8FF"/><stop offset="100%" stop-color="#FFF"/></linearGradient><linearGradient id="b" x1="47.438%" x2="50.437%" y1="94.898%" y2="42.015%"><stop offset="0%" stop-color="#FFF"/><stop offset="100%" stop-color="#FFF" stop-opacity="0"/></linearGradient><linearGradient id="c" x1=".036%" x2="99.999%" y1="50.003%" y2="50.003%"><stop offset="0%" stop-color="#F2F5F9"/><stop offset="100%" stop-color="#C6DFFE"/></linearGradient><linearGradient id="d" x1="35.915%" x2="73.517%" y1="80.438%" y2="-.575%"><stop offset="0%" stop-color="#2AB4FF"/><stop offset="99.9%" stop-color="#324DED" stop-opacity=".8"/></linearGradient><linearGradient id="e" x1="48.818%" x2="51.818%" y1="63.502%" y2="28.521%"><stop offset="0%" stop-color="#2AB4FF"/><stop offset="99.9%" stop-color="#324DED" stop-opacity=".8"/></linearGradient><linearGradient id="f" x1="30.763%" x2="72.96%" y1="80.276%" y2="13.592%"><stop offset="0%" stop-color="#FFF"/><stop offset="100%" stop-color="#BCC2D8"/></linearGradient><linearGradient id="g" x1="58.679%" x2="44.959%" y1="39.476%" y2="55.816%"><stop offset="0%" stop-color="#0041BF"/><stop offset="100%" stop-color="#00CFFF" stop-opacity=".9"/></linearGradient><linearGradient id="h" x1="54.034%" x2="38.533%" y1="-54.308%" y2="177.564%"><stop offset="0%" stop-color="#0089FF" stop-opacity=".9"/><stop offset="100%" stop-color="#FFF"/></linearGradient><linearGradient id="i" x1="57.749%" x2="117.204%" y1="74.344%" y2="263.216%"><stop offset="0%" stop-color="#2AB4FF"/><stop offset="99.9%" stop-color="#00D490"/></linearGradient><linearGradient id="j" x1="65.451%" x2="139.687%" y1="97.225%" y2="327.586%"><stop offset="0%" stop-color="#2AB4FF"/><stop offset="99.9%" stop-color="#00D490"/></linearGradient><linearGradient id="k" x1="62.286%" x2="136.672%" y1="88.238%" y2="319.273%"><stop offset="0%" stop-color="#2AB4FF"/><stop offset="99.9%" stop-color="#00D490"/></linearGradient><linearGradient id="l" x1="57.467%" x2="45.368%" y1="92.849%" y2="23.629%"><stop offset="0%" stop-color="#F95565"/><stop offset="100%" stop-color="#FF7F8D"/></linearGradient><linearGradient id="m" x1="45.273%" x2="54.558%" y1="91.792%" y2="9.309%"><stop offset="0%" stop-color="#2AB4FF"/><stop offset="99.9%" stop-color="#00D490" stop-opacity=".8"/></linearGradient><linearGradient id="n" x1="45.271%" x2="54.656%" y1="91.829%" y2="9.255%"><stop offset="0%" stop-color="#2AB4FF"/><stop offset="99.9%" stop-color="#00D490" stop-opacity=".8"/></linearGradient></defs><g fill="none" fill-rule="evenodd"><g fill-rule="nonzero"><path fill="#DEEDF9" d="M608.328 249.584l-361.94 209.408v10.756l361.94-215.206v-4.958zm-709.095 4.874l347.24 203.778v11.344l-347.24-204.198v-10.924z"/><path fill="url(#a)" d="M.336 200.164l361.351 215.122 347.24-208.315L361.687 0z" transform="matrix(-1 0 0 1 608.16 49)"/><g><path fill="#FFEC8F" d="M69.119 295.882c-.421-.252-.421-.756 0-1.008l42.133-24.202a1.965 1.965 0 0 1 1.682 0l41.88 23.866c.421.252.421.756 0 1.008L112.85 320.42a1.965 1.965 0 0 1-1.682 0l-42.05-24.538zm1.681-61.428c-.42-.252-.42-.757 0-1.009l42.134-24.201a1.965 1.965 0 0 1 1.682 0l41.88 23.865c.421.252.421.673 0 1.009l-41.964 24.874c-.42.252-1.178.252-1.682 0L70.8 234.454z"/><path fill="#000" d="M446.636 254.286L264.143 358.57c-4.542 2.605-10.092 2.353-14.297-.756L107.13 270.084l28.089 5.882 161.973-121.68 149.864 90.672c1.513 1.092 2.438 2.941 2.354 4.79-.084 1.849-1.177 3.613-2.775 4.538z" opacity=".07"/><path fill="url(#b)" d="M513 234.706L316.546 275.63 119.167 162.69l210.835-41.682c-2.187 1.597 58.785 39.496 182.998 113.698z" opacity=".07" transform="matrix(-1 0 0 1 450 0)"/><path fill="url(#c)" d="M346.065 207.31c-3.196 1.01 0 0 0 0l35.826-92.604c1.009-2.69 0-5.714-2.523-7.059L194.435 1.092a5.676 5.676 0 0 0-5.55-.168l-1.766 2.185 2.943 3.446-59.541 153.865c-.757 2.101.084 4.454 2.018 5.546l181.82 104.79.253 3.866 3.28-1.009c1.766-.504 3.196-1.764 3.868-3.529l7.065-18.32c16.146-41.764 17.156-44.285 17.24-44.453z" transform="matrix(-1 0 0 1 450 0)"/><path fill="#191C42" d="M71.39 108.74L257.582 1.428c1.514-.84 3.28-1.009 4.878-.42 1.598.588 2.859 1.848 3.532 3.445l60.803 157.227c1.01 2.689 0 5.714-2.523 7.227L139.088 275.63c-1.513.84-3.28 1.009-4.877.42-1.598-.588-2.86-1.848-3.532-3.36L69.455 114.537c-.841-2.27 0-4.622 1.934-5.799z"/><path fill="url(#d)" d="M137.5 151.26c-1.513-.924-2.186-2.857-1.597-4.537l52.814-136.05a2.518 2.518 0 0 1 1.598-1.597 2.695 2.695 0 0 1 2.27.252l177.952 102.605c1.514.924 2.187 2.857 1.598 4.538l-52.814 135.798a2.518 2.518 0 0 1-1.597 1.597 2.695 2.695 0 0 1-2.271-.253L137.501 151.261z" transform="matrix(-1 0 0 1 450 0)"/><path fill="#0A0D23" d="M133.706 270.336l-5.382-14.286 189.053-108.907 5.97 14.79c.59 1.512 0 3.193-1.429 4.033l-183.587 106.05a3.223 3.223 0 0 1-2.775.253c-.757-.336-1.514-1.093-1.85-1.933z"/><path fill="#252B4F" d="M317.04 149.832L130.93 257.395l3.953 10.42c.337.84 1.01 1.597 1.935 1.849s1.85.252 2.69-.252l180.644-104.454c1.346-.84 1.934-2.521 1.346-3.95l-4.458-11.176z"/><path fill="url(#e)" d="M136.828 144.454l-.925 2.353c-.589 1.68.084 3.53 1.598 4.538l177.952 102.437c.673.42 1.514.504 2.27.252a2.518 2.518 0 0 0 1.598-1.597l1.094-2.857-183.587-105.126z" transform="matrix(-1 0 0 1 450 0)"/><path fill="url(#f)" d="M4.878 249.412l174.336 100.42c4.457 2.605 10.007 2.269 14.128-.756l128.334-93.026-189.053-108.907-128.25 92.941c-1.514 1.092-2.355 2.857-2.27 4.79.084 1.849 1.093 3.53 2.775 4.538z" transform="matrix(-1 0 0 1 450 0)"/><path fill="#FFF" d="M373.723 278.235c1.682 1.26 1.598 3.11-.253 4.202l-39.946 23.025c-2.019 1.009-4.457.925-6.392-.336l-27.08-19.664c-1.681-1.26-1.597-3.11.253-4.201l39.947-23.026c2.018-1.008 4.457-.924 6.391.336l27.08 19.664z" opacity=".5"/><g opacity=".9"><path fill="url(#g)" d="M321.676 11.429l-1.261-.673 1.261.757z" transform="matrix(-1 0 0 1 450 244.538)"/><path fill="url(#h)" d="M193.342 104.538c-4.12 3.025-9.671 3.277-14.128.756L4.878 4.874C3.196 3.95 2.187 2.269 2.102.336 1.093 1.092.505 2.353.59 3.697c.084 1.345.84 2.437 1.934 3.11l178.373 102.689c5.214 2.52 9.082.336 10.596-.588L319.91 16.05l1.682-4.537-128.25 93.025z" transform="matrix(-1 0 0 1 450 244.538)"/></g><path fill="#FFF" d="M235.801 311.513c-1.766.924-3.784.756-5.466-.252l-72.913-52.101c-1.43-1.009-1.346-2.605.168-3.53l150.368-86.722c1.766-.925 3.784-.757 5.466.252l72.914 52.1c1.43 1.009 1.345 2.606-.169 3.53l-150.368 86.723z" opacity=".5"/><path fill="#FFF" d="M416.36 175.294a6.15 6.15 0 0 0 2.776-4.874l-.252-51.344c0-1.765-1.262-2.521-2.86-1.597l-94.779 55.042a6.15 6.15 0 0 0-2.775 4.874l.252 51.344c0 1.765 1.262 2.522 2.86 1.597l94.779-55.042zM335.458 339.664a6.15 6.15 0 0 0 2.775-4.874l-.336-51.345c0-1.764-1.262-2.52-2.86-1.596L240.26 336.89a6.15 6.15 0 0 0-2.776 4.874l.337 51.344c0 1.765 1.261 2.521 2.86 1.597l94.778-55.042z" opacity=".3"/><path fill="#191C42" d="M272.468 131.26c1.01-.588 1.43-1.848 1.01-2.94l-30.78-79.328a1.763 1.763 0 0 0-1.094-1.093c-.504-.168-1.009-.084-1.514.168l-125.306 72.857c-1.01.589-1.43 1.85-1.01 2.942l30.78 79.243c.169.504.59.925 1.094 1.093.505.168 1.01.084 1.514-.168l125.306-72.773z" opacity=".3"/><path fill="#FFF" d="M278.44 132.857c1.009-.588 1.429-1.849 1.009-2.941l-30.78-79.328a1.763 1.763 0 0 0-1.094-1.092c-.504-.168-1.009-.084-1.514.168L120.755 122.52c-1.01.588-1.43 1.849-1.01 2.941l30.865 79.328c.168.504.589.924 1.093 1.092.505.168 1.01.084 1.514-.168l125.222-72.857z" opacity=".9"/><path fill="#FFF" d="M120.839 122.605l125.307-72.857a1.89 1.89 0 0 1 1.513-.168c.505.168.841.588 1.094 1.008l2.523 6.555-128.923 74.874-2.523-6.47c-.42-1.093 0-2.354 1.009-2.942z" opacity=".9"/><path fill="#EA323F" d="M129.968 121.454c-.336.504-.252 1.26.252 1.849.505.504 1.178.588 1.514.084.337-.505.253-1.345-.252-1.85-.505-.503-1.177-.587-1.514-.083z"/><path fill="#FFCC29" d="M127.025 123.134c-.337.505-.253 1.345.252 1.85.505.503 1.177.587 1.514.083.336-.504.252-1.26-.252-1.849-.505-.504-1.178-.588-1.514-.084z"/><path fill="#5FEA26" d="M124.081 124.815c-.336.504-.252 1.345.253 1.849.504.504 1.177.588 1.513.084.337-.504.253-1.26-.252-1.849-.42-.504-1.177-.588-1.514-.084z"/><path fill="#C1C7E5" d="M157.842 202.941l-11.521-30.588c-.337-.924 0-2.017.84-2.437l107.394-62.521c.841-.504 1.766-.084 2.103.756l11.521 30.673-110.337 64.117z" opacity=".3"/><g opacity=".9"><path fill="url(#i)" d="M1.648 7.854C.302 7.097-.287 5.5.134 4.24c.42-1.26 1.934-1.596 3.196-.84l45.076 26.05c1.262.757 1.935 2.353 1.514 3.614-.505 1.26-1.934 1.596-3.196.84L1.648 7.854z" transform="matrix(-1 0 0 1 192.369 113.47)"/><path fill="url(#j)" d="M14.639 4.938C13.377 4.18 12.705 2.5 13.125 1.24c.42-1.26 1.934-1.596 3.196-.84l35.658 20.42c1.261.756 1.934 2.353 1.513 3.614-.504 1.26-1.934 1.596-3.195.84L14.639 4.938z" transform="matrix(-1 0 0 1 192.369 113.47)"/><path fill="url(#k)" d="M7.648 21.854c-1.346-.757-1.935-2.353-1.514-3.614.42-1.26 1.934-1.596 3.196-.84l35.657 20.336c1.346.756 1.934 2.353 1.514 3.614-.505 1.26-1.934 1.596-3.196.84L7.648 21.854z" transform="matrix(-1 0 0 1 192.369 113.47)"/></g><path fill="url(#l)" d="M294.428 171.429l-107.393-62.521c-.841-.505-1.766-.169-2.103.756l-12.867 34.033c-.336.925 0 1.933.841 2.437L280.3 208.571c.84.505 1.766.084 2.102-.756l12.783-33.95a1.882 1.882 0 0 0-.757-2.436z" transform="matrix(-1 0 0 1 450 0)"/><path fill="#E5CF9D" d="M175.082 317.647l8.158 10.084-12.447-2.941-2.018-9.496z"/><path fill="#F42807" d="M87.536 275.966c-4.12-2.353 0-9.16 4.29-7.058l83.172 48.74-2.27 1.428-1.682 2.52-.337 3.278-83.173-48.908z"/><path fill="#F45B44" d="M172.812 318.992l-85.108-49.664c1.094-1.009 2.776-1.177 4.037-.504l83.257 48.823-2.186 1.345z"/><path fill="#D11E02" d="M170.793 324.79L87.62 275.882c-1.598-.924-1.934-2.605-1.514-4.117l85.024 49.832-.337 3.193z"/><path fill="#FFE11B" d="M83.668 273.697c-4.121-2.352 0-9.243 4.289-7.058l4.12 2.353c-4.289-2.101-8.41 4.705-4.289 7.058"/><path fill="#4F4E56" d="M180.717 327.143c0-.504.168-1.177 1.01-1.345l2.774 2.69-3.784-1.345z"/><path fill="url(#m)" d="M104.702 344.622c-1.597-1.093-2.69-2.857-2.775-4.874l.253-51.177c0-1.764 1.261-2.52 2.859-1.596l94.61 54.958a6.027 6.027 0 0 1 2.776 4.874l-.253 51.176c0 1.765-1.261 2.521-2.859 1.597l-94.61-54.958z" opacity=".9" transform="matrix(-1 0 0 1 450 0)"/><path fill="url(#n)" d="M23.632 180.252a6.15 6.15 0 0 1-2.776-4.874l.253-51.26c0-1.765 1.261-2.521 2.859-1.597l94.695 55.042a6.027 6.027 0 0 1 2.775 4.874l-.252 51.26c0 1.765-1.262 2.521-2.86 1.597l-94.694-55.042z" opacity=".9" transform="matrix(-1 0 0 1 450 0)"/></g></g><g fill="#FFF"><path d="M343.255 193.673l1.228-.718v1.11L341 196.098v-1.11l1.242-.718v-4.889l-1.147 1.598v-1.219l1.579-2.193.594-.352zM348.034 190.897l1.228-.718v1.11l-3.497 2.032v-1.11l1.242-.718v-4.889l-1.147 1.598v-1.219l1.58-2.193.594-.352zM352.799 188.134l1.229-.717v1.11l-3.497 2.031v-1.11l1.242-.718v-4.888l-1.148 1.598v-1.22l1.58-2.193.594-.338zM358.793 184.668v1.11l-3.807 2.207v-1.015l1.917-3.887c.23-.46.391-.866.5-1.205.107-.338.161-.636.161-.907 0-.352-.08-.569-.229-.65-.149-.095-.365-.054-.648.108-.5.285-1.013.853-1.539 1.68l-.338-.8a5.17 5.17 0 0 1 .864-1.137c.351-.366.702-.65 1.053-.853.567-.325 1.013-.406 1.35-.23.338.176.5.582.5 1.218 0 .434-.068.88-.216 1.34-.135.461-.378 1.03-.702 1.694l-1.39 2.79 2.524-1.463zM363.572 181.892v1.11l-3.807 2.207v-1.015l1.917-3.887c.23-.46.391-.866.5-1.205.107-.338.161-.636.161-.907 0-.352-.08-.569-.229-.65-.149-.095-.364-.054-.648.108-.5.284-1.013.853-1.539 1.68l-.338-.8c.23-.392.513-.785.864-1.137.351-.366.702-.65 1.053-.853.567-.325 1.013-.407 1.35-.23.338.176.5.582.5 1.218 0 .434-.068.88-.216 1.34-.135.461-.378 1.03-.702 1.694l-1.39 2.79 2.524-1.463zM368.351 179.116v1.11l-3.807 2.207v-1.015l1.917-3.887c.23-.46.391-.866.5-1.205.107-.339.161-.636.161-.907 0-.352-.08-.569-.229-.65-.149-.095-.364-.054-.648.108-.5.284-1.013.853-1.539 1.68l-.338-.8c.23-.392.513-.785.864-1.137.351-.366.702-.65 1.053-.853.567-.325 1.013-.407 1.35-.23.338.175.5.582.5 1.218 0 .434-.068.88-.216 1.34-.135.461-.378 1.03-.702 1.694l-1.39 2.79 2.524-1.463zM371.915 177.057l1.229-.717v1.11l-3.497 2.031v-1.11l1.242-.718v-4.888l-1.148 1.598v-1.22l1.58-2.193.594-.339z"/><path fill-rule="nonzero" d="M377.396 168.296c.392.42.58 1.232.58 2.424 0 .84-.094 1.611-.283 2.315-.189.718-.445 1.328-.796 1.842-.351.515-.756.92-1.242 1.192a2.316 2.316 0 0 1-.986.338 1.243 1.243 0 0 1-.837-.176l.337-1.191c.5.23.986.216 1.445-.055.419-.243.742-.677.972-1.286.23-.61.351-1.368.364-2.261-.121.392-.31.758-.553 1.096a2.642 2.642 0 0 1-.837.772c-.338.19-.635.271-.891.217-.256-.054-.472-.217-.621-.501-.148-.284-.23-.664-.23-1.138 0-.487.081-.961.243-1.435.162-.474.392-.907.675-1.286.284-.38.621-.678.986-.894.729-.393 1.282-.393 1.674.027zm-.877 3.02c.189-.366.283-.745.283-1.165 0-.42-.094-.69-.283-.84-.19-.149-.432-.135-.73.028-.296.176-.54.433-.715.799-.175.365-.27.744-.27 1.164 0 .42.095.704.27.853.175.15.419.136.715-.04.298-.176.54-.447.73-.8zM382.512 168.81c.203.204.311.542.311 1.002 0 .434-.095.867-.27 1.287-.175.42-.432.812-.742 1.178-.324.352-.689.65-1.107.894-.419.244-.784.379-1.108.393-.324.013-.567-.082-.742-.312-.175-.217-.27-.542-.27-.975 0-.46.108-.907.31-1.354.203-.447.5-.84.864-1.165-.324.041-.567-.04-.756-.23-.189-.203-.27-.5-.27-.907 0-.406.081-.826.257-1.232a4.24 4.24 0 0 1 .702-1.124 3.83 3.83 0 0 1 1.026-.84c.378-.217.729-.339 1.026-.339.297 0 .54.095.702.298.162.204.257.515.257.935 0 .42-.095.826-.27 1.232a3.544 3.544 0 0 1-.756 1.097c.337-.108.62-.054.837.162zm-.972 2.492c.203-.311.311-.663.311-1.03 0-.351-.108-.568-.31-.663-.203-.094-.486-.067-.837.068-.351.27-.635.569-.837.907-.216.339-.311.677-.311 1.03 0 .365.108.595.31.677.203.08.487.013.851-.19.365-.203.621-.487.824-.799zm-1.593-4.103c-.175.298-.27.623-.27.975 0 .338.095.555.27.65.19.108.432.095.73-.014.31-.243.553-.514.728-.84.176-.31.27-.636.27-.974 0-.352-.094-.569-.27-.664-.175-.081-.432-.04-.742.136-.31.176-.527.433-.716.731z"/><path d="M383.485 163.881l3.942-2.288v1.015l-2.565 8.044-1.094.637 2.565-7.936-2.835 1.652v-1.124zM388.264 161.119l3.942-2.289v1.016l-2.565 8.044-1.094.636 2.565-7.935-2.835 1.652v-1.124z"/><path fill-rule="nonzero" d="M396.822 160.51c.203.203.311.541.311 1.001 0 .434-.095.867-.27 1.287-.175.42-.432.812-.742 1.178-.324.352-.689.65-1.107.894-.419.244-.783.379-1.107.393-.324.013-.567-.082-.743-.312-.175-.217-.27-.542-.27-.975 0-.46.108-.907.31-1.354.203-.447.5-.84.865-1.165-.324.04-.567-.04-.756-.23-.19-.203-.27-.501-.27-.907s.08-.826.256-1.232a3.92 3.92 0 0 1 .702-1.124 3.83 3.83 0 0 1 1.026-.84c.378-.217.729-.339 1.026-.339.297 0 .54.095.702.312.162.217.257.514.257.934 0 .406-.095.826-.27 1.233a3.4 3.4 0 0 1-.756 1.083c.337-.108.634-.054.837.162zM395.85 163c.203-.311.311-.664.311-1.03 0-.351-.108-.568-.31-.663-.203-.094-.486-.067-.837.068-.351.27-.635.569-.837.907-.203.339-.311.677-.311 1.016 0 .366.108.596.31.677.203.081.487.014.851-.19.338-.203.621-.474.824-.785zm-1.579-4.103c-.175.298-.27.623-.27.975 0 .338.095.555.27.65.175.095.432.095.742-.014.311-.243.554-.514.73-.84.189-.31.27-.636.27-.974 0-.352-.095-.569-.27-.664-.176-.095-.432-.04-.743.15-.31.189-.553.419-.729.717zM401.25 154.456c.392.42.581 1.233.581 2.438 0 .84-.095 1.611-.284 2.315-.189.705-.445 1.327-.796 1.842-.351.515-.756.92-1.242 1.192a2.316 2.316 0 0 1-.986.338 1.243 1.243 0 0 1-.837-.176l.338-1.191c.5.23.986.216 1.444-.055.419-.243.743-.663.972-1.286.23-.61.351-1.368.365-2.262-.121.393-.31.759-.553 1.097a2.642 2.642 0 0 1-.837.772c-.338.19-.635.271-.891.217-.257-.054-.473-.217-.621-.501-.135-.271-.203-.65-.203-1.124 0-.488.081-.962.243-1.436.162-.473.392-.907.675-1.286.284-.38.621-.677.986-.894.715-.42 1.255-.42 1.647 0zm-.877 3.02c.189-.366.284-.745.284-1.165 0-.42-.095-.69-.284-.84-.189-.148-.432-.135-.729.028-.297.176-.54.433-.715.799-.176.352-.27.745-.27 1.165 0 .42.094.704.27.853.175.149.418.135.715-.041.31-.162.553-.433.729-.799z"/><path d="M406.192 155.066c.175.216.27.555.27 1.029 0 .663-.176 1.286-.54 1.882a4.014 4.014 0 0 1-1.472 1.422 3.254 3.254 0 0 1-1.107.406c-.351.054-.648 0-.878-.149l.351-1.205c.5.23 1.026.19 1.58-.135.364-.204.634-.46.81-.759.175-.298.27-.636.27-1.029 0-.379-.095-.61-.27-.69-.176-.082-.459 0-.837.216l-.743.433v-1.083l.608-.352c.729-.42 1.093-1.016 1.093-1.747 0-.352-.08-.569-.243-.663-.162-.095-.378-.055-.675.108-.513.298-1.012.853-1.525 1.666l-.324-.8c.23-.406.513-.785.864-1.137.351-.365.702-.65 1.066-.853.554-.325 1-.393 1.337-.23.337.176.5.569.5 1.178 0 .42-.082.826-.244 1.232a3.571 3.571 0 0 1-.661 1.056c.337-.094.594-.013.77.204z"/><path fill-rule="nonzero" d="M411.524 152.655v1.07l-.796.46v1.476l-1.013.596v-1.49l-2.47 1.436v-1.016l2.646-6.608.823-.474v5.024l.81-.474zm-3.308 1.91l1.499-.867v-2.884l-1.498 3.75z"/><path d="M415.331 148.457c.27.04.486.203.635.488.148.284.229.663.229 1.137 0 .501-.081.989-.256 1.463a4.731 4.731 0 0 1-.73 1.3 4.14 4.14 0 0 1-1.107.961 2.723 2.723 0 0 1-1.053.366c-.35.04-.634-.014-.85-.15l.337-1.19c.513.23 1.04.189 1.58-.123.351-.203.621-.487.81-.826a2.56 2.56 0 0 0 .283-1.205c0-.42-.094-.704-.297-.84-.189-.135-.445-.121-.769.068-.23.136-.432.312-.635.528a3.754 3.754 0 0 0-.513.786l-.62.365v-4.455l3.55-2.058v1.07l-2.538 1.476v2.058a3.061 3.061 0 0 1 1.012-.989c.351-.19.662-.27.932-.23zM420.853 148.674v1.11l-3.807 2.208v-1.002l1.917-3.887c.229-.46.391-.867.499-1.205.108-.339.162-.637.162-.907 0-.352-.081-.57-.23-.65-.148-.095-.364-.055-.648.108-.499.284-1.012.853-1.539 1.68l-.337-.8c.23-.393.513-.785.864-1.137.351-.366.702-.65 1.053-.853.567-.325 1.012-.407 1.35-.23.337.175.5.582.5 1.218 0 .433-.068.88-.217 1.34a13.15 13.15 0 0 1-.702 1.693l-1.39 2.79 2.525-1.476z"/><g><path fill-rule="nonzero" d="M359.387 204.994l-1.08.623-.729-2.1c-.067-.202-.162-.297-.297-.324-.135-.014-.31.04-.513.162l-1.026.596v3.142l-1.012.596v-7.57l2.43-1.409c.634-.379 1.134-.46 1.458-.284.337.19.499.623.499 1.327 0 .501-.094.989-.297 1.45-.202.46-.486.88-.85 1.245.337-.108.58.068.729.515l.688 2.03zm-2.376-2.83c.391-.23.675-.488.864-.786.189-.298.284-.636.284-1.029 0-.38-.095-.61-.27-.704-.19-.081-.473-.014-.864.216l-1.283.745v2.302l1.269-.744z"/><path d="M361.21 202.84l3.01-1.746v1.097l-4.158 2.41v-1.002l2.902-7.164-2.916 1.693v-1.097l4.077-2.356v.989z"/><path fill-rule="nonzero" d="M365.125 194.093l2.457-1.422c.607-.352 1.08-.433 1.417-.23.337.203.513.636.513 1.313a3.82 3.82 0 0 1-.513 1.91 3.766 3.766 0 0 1-1.418 1.421l-1.43.826v3.156l-1.026.596v-7.57zm2.335 1.99c.351-.203.621-.46.81-.758.176-.298.27-.636.27-1.002 0-.38-.095-.61-.27-.704-.175-.095-.445-.027-.81.176l-1.31.758v2.289l1.31-.759zM375.087 195.894l-1.08.623-.729-2.1c-.067-.202-.162-.297-.297-.324-.135-.014-.31.04-.513.162l-1.026.596v3.142l-1.012.596v-7.57l2.43-1.409c.648-.365 1.134-.46 1.458-.284.338.19.5.623.5 1.327 0 .501-.095.989-.297 1.45-.203.46-.486.88-.851 1.245.337-.108.58.068.729.515l.688 2.03zm-2.389-2.83c.392-.23.675-.488.864-.786.189-.298.283-.636.283-1.029 0-.38-.094-.61-.27-.69-.175-.082-.472-.014-.864.216l-1.282.745v2.302l1.269-.758zM376.235 194.323c-.351-.46-.526-1.327-.526-2.587 0-1.245.175-2.302.526-3.168.351-.867.864-1.49 1.539-1.883.675-.392 1.188-.365 1.539.095.351.447.527 1.3.527 2.56 0 1.259-.176 2.329-.527 3.195-.351.867-.864 1.504-1.539 1.896-.675.38-1.188.352-1.539-.108zm2.335-2.113c.163-.541.244-1.313.244-2.288 0-.962-.081-1.625-.257-1.964-.162-.352-.432-.42-.796-.203-.365.217-.635.583-.797 1.124-.162.542-.256 1.287-.243 2.262 0 .975.081 1.638.257 1.99.162.352.432.42.796.217.365-.203.635-.582.797-1.138zM381.014 191.56c-.351-.46-.526-1.327-.526-2.586 0-1.246.175-2.302.526-3.169.351-.866.864-1.49 1.539-1.882.675-.393 1.188-.366 1.539.095.351.447.527 1.3.527 2.56 0 1.258-.176 2.328-.527 3.195-.351.867-.864 1.503-1.539 1.896-.675.379-1.188.352-1.539-.109zm2.335-2.112c.163-.542.244-1.314.244-2.289 0-.961-.081-1.625-.257-1.963-.175-.339-.432-.406-.796-.203-.365.216-.635.582-.797 1.124-.162.541-.256 1.286-.243 2.261 0 .975.081 1.639.257 1.99.162.353.432.42.796.217.365-.216.635-.595.797-1.137zM385.78 188.784c-.351-.46-.527-1.313-.527-2.586 0-1.246.175-2.302.526-3.169.351-.866.864-1.49 1.54-1.882.674-.393 1.187-.366 1.538.095.351.447.527 1.3.527 2.559 0 1.26-.176 2.33-.527 3.196-.35.867-.864 1.503-1.539 1.896-.675.392-1.188.352-1.539-.109zm2.335-2.112c.162-.542.256-1.314.256-2.289 0-.961-.08-1.625-.256-1.963-.175-.339-.432-.42-.797-.203-.364.216-.634.582-.796 1.124-.162.541-.256 1.286-.256 2.261 0 .975.08 1.639.256 1.99.162.353.432.42.797.217.364-.203.634-.582.796-1.137zM390.558 186.022c-.35-.46-.526-1.327-.526-2.587 0-1.245.176-2.302.527-3.168.35-.867.863-1.49 1.538-1.883.675-.392 1.188-.365 1.54.095.35.447.526 1.3.526 2.56 0 1.259-.176 2.329-.527 3.195-.35.867-.864 1.504-1.539 1.896-.675.38-1.188.352-1.539-.108zm2.336-2.113c.162-.541.243-1.313.243-2.288 0-.962-.081-1.625-.257-1.964-.175-.338-.432-.42-.796-.203-.365.217-.635.582-.797 1.124-.161.542-.256 1.287-.242 2.262 0 .975.08 1.638.256 1.99.162.352.432.42.797.217.364-.203.62-.582.796-1.138zM395.324 183.26c-.351-.461-.526-1.328-.526-2.587 0-1.246.175-2.302.526-3.169.351-.866.864-1.49 1.539-1.882.675-.393 1.188-.366 1.539.095.351.447.526 1.3.526 2.559 0 1.26-.175 2.33-.526 3.196-.351.867-.864 1.503-1.539 1.896-.675.379-1.188.352-1.539-.109zm2.336-2.113c.162-.542.256-1.314.256-2.289 0-.961-.081-1.625-.256-1.963-.176-.339-.432-.42-.797-.203-.364.216-.634.582-.796 1.124-.162.541-.257 1.286-.257 2.261 0 .975.081 1.639.257 1.99.162.353.432.42.796.217.365-.216.635-.595.797-1.137zM400.103 180.483c-.351-.46-.526-1.327-.526-2.586 0-1.246.175-2.302.526-3.169.351-.867.864-1.49 1.539-1.882.675-.393 1.188-.366 1.539.095.351.447.527 1.3.527 2.559 0 1.26-.176 2.33-.527 3.196-.351.867-.864 1.503-1.539 1.896-.675.392-1.188.352-1.539-.109zm2.335-2.112c.162-.542.257-1.314.257-2.289 0-.961-.081-1.625-.257-1.963-.175-.339-.432-.42-.796-.203-.364.216-.635.582-.797 1.124-.162.541-.256 1.286-.256 2.261 0 .975.081 1.639.257 2.004.162.352.432.42.796.217.364-.217.621-.596.796-1.151z"/><path d="M407.177 176.164l1.229-.718v1.11l-3.497 2.018v-1.11l1.242-.718v-4.889l-1.148 1.598v-1.219l1.58-2.193.594-.352z"/></g></g><g fill="#FFF"><path d="M261.255 357.74l1.228-.717v1.11L259 360.165v-1.11l1.242-.719v-4.888l-1.147 1.598v-1.219l1.579-2.194.594-.352zM266.034 354.965l1.228-.718v1.11l-3.497 2.032v-1.11l1.242-.719v-4.888l-1.147 1.598v-1.219l1.58-2.194.594-.352zM270.799 352.202l1.229-.718v1.11l-3.497 2.032v-1.11l1.242-.718v-4.889l-1.148 1.598v-1.218l1.58-2.194.594-.339zM276.793 348.735v1.11l-3.807 2.208v-1.016l1.93-3.886c.23-.46.392-.867.5-1.205.108-.339.162-.637.162-.907 0-.353-.081-.57-.23-.65-.148-.095-.364-.055-.648.108-.499.284-1.012.853-1.539 1.679l-.337-.799c.23-.393.513-.785.864-1.137.351-.366.702-.65 1.053-.854.567-.325 1.012-.406 1.35-.23.337.176.5.583.5 1.219 0 .433-.068.88-.216 1.34-.135.461-.378 1.03-.702 1.693l-1.391 2.79 2.511-1.463zM281.572 345.96v1.11l-3.807 2.207v-1.016l1.917-3.886c.23-.46.391-.867.5-1.205.107-.339.161-.637.161-.907 0-.353-.08-.57-.229-.65-.149-.095-.364-.055-.648.108-.5.284-1.013.853-1.539 1.679l-.338-.799c.23-.393.513-.785.864-1.137.351-.366.702-.65 1.053-.854.567-.325 1.013-.406 1.35-.23.338.176.5.583.5 1.219 0 .433-.068.88-.216 1.34-.135.461-.378 1.03-.702 1.693l-1.39 2.79 2.524-1.463zM286.351 343.183v1.11l-3.807 2.208v-1.016l1.917-3.886c.23-.46.391-.867.5-1.205.107-.339.161-.637.161-.908 0-.352-.08-.568-.229-.65-.149-.08-.364-.054-.648.109-.5.284-1.013.853-1.539 1.679l-.338-.799c.23-.393.513-.785.864-1.137.351-.353.702-.65 1.053-.854.567-.325 1.013-.406 1.35-.23.338.176.5.582.5 1.219 0 .433-.068.88-.216 1.34-.135.461-.378 1.03-.702 1.693l-1.377 2.79 2.511-1.463zM289.915 341.125l1.229-.718v1.11l-3.497 2.032v-1.11l1.242-.718v-4.889l-1.148 1.598v-1.219l1.58-2.193.594-.339z"/><path fill-rule="nonzero" d="M295.396 332.364c.392.42.58 1.232.58 2.424 0 .84-.094 1.611-.283 2.315-.189.718-.445 1.327-.796 1.842-.351.514-.756.92-1.242 1.191a2.316 2.316 0 0 1-.986.339 1.243 1.243 0 0 1-.837-.176l.337-1.192c.5.23.986.217 1.445-.054.419-.244.742-.677.972-1.286.23-.61.351-1.368.364-2.262-.121.393-.31.759-.553 1.097a2.642 2.642 0 0 1-.837.772c-.338.19-.635.27-.891.217-.256-.055-.472-.217-.621-.501-.148-.285-.23-.664-.23-1.138 0-.487.081-.961.243-1.435.162-.474.392-.908.675-1.287.284-.379.621-.677.986-.894.729-.392 1.282-.392 1.674.028zm-.877 3.02c.189-.366.283-.745.283-1.165 0-.42-.094-.69-.283-.84-.19-.149-.432-.135-.73.027-.296.163-.54.434-.715.8-.175.351-.27.744-.27 1.164 0 .42.095.704.27.853.175.149.419.135.715-.04.298-.177.54-.448.73-.8zM300.512 332.878c.203.203.311.542.311 1.002 0 .434-.095.867-.27 1.287-.175.42-.432.812-.742 1.178-.324.352-.689.65-1.107.894-.419.243-.784.379-1.108.392-.324.014-.567-.081-.742-.311-.175-.217-.27-.542-.27-.975 0-.46.108-.908.31-1.354.203-.447.5-.84.864-1.165-.324.04-.567-.04-.756-.23-.189-.203-.27-.501-.27-.907 0-.407.081-.827.257-1.233a3.92 3.92 0 0 1 .702-1.124 3.83 3.83 0 0 1 1.026-.84c.378-.216.729-.338 1.026-.338.297 0 .54.095.702.298.162.203.257.515.257.934 0 .42-.095.826-.27 1.233-.19.42-.432.772-.756 1.097.337-.109.62-.041.837.162zm-.972 2.492c.203-.312.311-.664.311-1.03 0-.351-.108-.568-.31-.663-.216-.095-.486-.068-.837.068-.351.27-.635.569-.837.907-.203.339-.311.677-.311 1.03 0 .365.108.595.31.676.203.082.487.014.851-.19.338-.216.621-.487.824-.798zm-1.593-4.103c-.175.298-.27.623-.27.975 0 .338.095.555.27.65.19.108.432.094.743-.014.31-.244.553-.514.729-.84.189-.31.27-.636.27-.974 0-.353-.095-.57-.27-.664-.175-.095-.432-.04-.742.135a2.68 2.68 0 0 0-.73.732z"/><path d="M301.485 327.949l3.942-2.289v1.016l-2.565 8.044-1.094.636 2.565-7.935-2.835 1.652v-1.124zM306.264 325.186l3.942-2.288v1.016l-2.565 8.043-1.094.637 2.552-7.936-2.835 1.652z"/><path fill-rule="nonzero" d="M314.822 324.577c.203.203.311.542.311 1.002 0 .434-.095.867-.27 1.287-.175.42-.432.812-.742 1.178-.324.352-.689.65-1.107.894-.419.243-.783.379-1.107.392-.324.014-.567-.081-.743-.311-.175-.217-.27-.542-.27-.975 0-.46.108-.908.31-1.354.203-.447.5-.84.865-1.165-.324.04-.567-.04-.756-.23-.19-.19-.27-.501-.27-.907 0-.407.08-.827.256-1.233a4.24 4.24 0 0 1 .702-1.124 3.829 3.829 0 0 1 1.026-.84c.378-.216.729-.338 1.026-.338.297 0 .527.095.702.312.176.216.257.514.257.934 0 .406-.095.826-.27 1.232a3.2 3.2 0 0 1-.756 1.084c.337-.109.634-.041.837.162zm-.972 2.492c.203-.312.311-.664.311-1.03 0-.351-.108-.568-.31-.663-.203-.095-.486-.068-.837.068-.351.27-.635.568-.837.907-.216.339-.311.677-.311 1.016 0 .365.108.595.31.677.203.081.487.013.851-.19.365-.203.621-.46.824-.785zm-1.579-4.103c-.175.298-.27.623-.27.975 0 .338.095.555.27.65.175.094.432.094.729-.014.31-.244.553-.514.729-.84.175-.311.27-.636.27-.975 0-.352-.095-.568-.27-.663-.175-.081-.432-.04-.742.149-.298.19-.54.433-.716.718zM319.25 318.538c.392.42.581 1.232.581 2.437 0 .84-.095 1.611-.284 2.316-.189.704-.445 1.327-.796 1.841-.351.515-.756.921-1.242 1.192a2.316 2.316 0 0 1-.986.339 1.243 1.243 0 0 1-.837-.177l.338-1.191c.5.23.986.216 1.444-.054.419-.244.743-.664.972-1.287.23-.61.351-1.368.365-2.261-.121.392-.31.758-.553 1.097a2.642 2.642 0 0 1-.837.771c-.338.19-.635.271-.891.217-.257-.054-.473-.217-.621-.5-.135-.285-.203-.664-.203-1.138 0-.488.081-.962.243-1.436.162-.474.392-.907.675-1.286.284-.38.621-.677.986-.894.702-.42 1.255-.42 1.647.014zm-.877 3.006c.189-.366.284-.745.284-1.165 0-.42-.095-.69-.284-.84-.189-.148-.432-.135-.729.028-.297.176-.54.433-.715.799-.176.352-.27.744-.27 1.164 0 .42.094.704.27.853.175.15.418.136.715-.04.31-.163.553-.434.729-.8z"/><path d="M324.192 319.133c.175.217.27.556.27 1.03 0 .663-.176 1.286-.54 1.882a4.014 4.014 0 0 1-1.472 1.422 3.156 3.156 0 0 1-1.107.406c-.351.054-.648 0-.864-.149l.351-1.205c.5.23 1.026.19 1.58-.136.364-.203.634-.46.81-.758.175-.298.27-.636.27-1.03 0-.378-.095-.609-.27-.69-.176-.081-.46 0-.838.217l-.742.433v-1.083l.607-.352c.73-.42 1.094-1.016 1.094-1.747 0-.352-.081-.569-.243-.664-.162-.094-.378-.054-.675.109-.513.298-1.013.853-1.526 1.665l-.337-.799c.23-.406.513-.785.864-1.137.351-.366.702-.65 1.066-.853.554-.325 1-.393 1.337-.23.337.176.5.568.5 1.178 0 .42-.082.826-.244 1.232a3.571 3.571 0 0 1-.661 1.056c.337-.081.594-.013.77.203z"/><path fill-rule="nonzero" d="M329.524 316.723v1.07l-.796.46v1.476l-1.013.596v-1.476l-2.47 1.422v-1.016l2.646-6.608.823-.474v5.024l.81-.474zm-3.308 1.91l1.499-.867v-2.885l-1.498 3.751z"/><path d="M333.331 312.525c.27.04.486.203.621.487.148.285.23.664.23 1.138 0 .501-.081.989-.257 1.463a4.731 4.731 0 0 1-.729 1.3 4.14 4.14 0 0 1-1.107.961 2.723 2.723 0 0 1-1.053.366c-.337.04-.634-.014-.85-.15l.337-1.191c.513.23 1.04.19 1.58-.122.35-.203.62-.487.81-.826a2.45 2.45 0 0 0 .283-1.178c0-.42-.094-.704-.297-.84-.189-.135-.445-.122-.77.068-.229.135-.431.312-.634.528-.203.217-.365.488-.513.786l-.608.352v-4.456l3.551-2.058v1.07l-2.538 1.476v2.058a3.061 3.061 0 0 1 1.012-.988c.351-.203.662-.285.932-.244zM337.637 313.46l1.229-.718v1.11l-3.496 2.031v-1.124l1.242-.717v-4.889l-1.148 1.598v-1.219l1.58-2.193.594-.339z"/><g><path fill-rule="nonzero" d="M277.387 369.061l-1.08.623-.729-2.099c-.067-.203-.162-.297-.297-.325-.135-.013-.31.041-.513.163l-1.026.596v3.141l-1.012.596v-7.57l2.43-1.408c.648-.379 1.134-.46 1.458-.284.337.19.499.623.499 1.327 0 .5-.094.988-.297 1.449-.202.46-.486.88-.85 1.246.337-.109.58.067.729.514l.688 2.031zm-2.376-2.83c.391-.23.675-.487.864-.785.189-.298.284-.637.284-1.03 0-.378-.095-.609-.27-.703-.19-.082-.473-.014-.864.216l-1.283.745v2.302l1.269-.745z"/><path d="M279.21 366.908l3.01-1.747v1.097l-4.158 2.41v-1.001l2.902-7.164-2.916 1.693v-1.097l4.077-2.356v.988z"/><path fill-rule="nonzero" d="M283.125 358.16l2.457-1.421c.607-.353 1.08-.434 1.417-.23.337.202.513.636.513 1.313a3.82 3.82 0 0 1-.513 1.91 3.766 3.766 0 0 1-1.418 1.421l-1.43.826v3.155l-1.026.596v-7.57zm2.335 1.991c.351-.203.621-.46.81-.758.189-.298.27-.637.27-1.002 0-.38-.095-.61-.27-.705-.175-.094-.445-.027-.81.177l-1.31.758v2.288l1.31-.758zM293.087 359.961l-1.08.623-.729-2.099c-.067-.203-.162-.297-.297-.325-.135-.027-.31.041-.513.163l-1.026.596v3.141l-1.012.596v-7.57l2.43-1.408c.634-.365 1.134-.46 1.458-.284.338.19.5.623.5 1.327 0 .5-.095.988-.297 1.449-.203.46-.486.88-.851 1.246.337-.109.58.067.729.514l.688 2.031zm-2.389-2.83c.392-.23.675-.487.864-.785.189-.298.283-.637.283-1.03 0-.378-.094-.609-.27-.69-.189-.081-.472-.013-.864.217l-1.282.745v2.302l1.269-.759zM294.235 358.39c-.351-.46-.526-1.326-.526-2.586 0-1.246.175-2.302.526-3.169.351-.866.864-1.49 1.539-1.882.675-.393 1.188-.365 1.539.095.351.447.527 1.3.527 2.56 0 1.259-.176 2.328-.527 3.195-.351.867-.864 1.503-1.539 1.896-.675.393-1.188.352-1.539-.108zm2.335-2.112c.163-.542.257-1.313.257-2.288 0-.962-.081-1.625-.256-1.964-.162-.352-.432-.42-.797-.203-.364.217-.634.582-.796 1.124-.162.542-.257 1.286-.257 2.261 0 .975.081 1.639.257 1.991.175.352.432.42.796.217.365-.203.635-.583.797-1.138zM299.014 355.628c-.351-.46-.526-1.327-.526-2.586 0-1.246.175-2.302.526-3.17.351-.866.864-1.489 1.539-1.881.675-.393 1.188-.366 1.539.094.351.447.527 1.3.527 2.56s-.176 2.329-.527 3.196c-.351.866-.864 1.503-1.539 1.895-.675.38-1.188.353-1.539-.108zm2.335-2.112c.163-.542.257-1.314.257-2.289 0-.961-.081-1.625-.256-1.963-.176-.339-.432-.407-.797-.204-.364.217-.634.583-.796 1.124-.162.542-.257 1.287-.257 2.262 0 .975.081 1.638.257 1.99.162.353.432.42.796.217.365-.217.635-.596.797-1.137zM303.78 352.852c-.351-.46-.527-1.313-.527-2.586 0-1.246.175-2.302.526-3.17.351-.866.864-1.489 1.54-1.881.674-.393 1.187-.366 1.538.094.351.447.527 1.3.527 2.56s-.176 2.329-.527 3.196c-.35.866-.864 1.503-1.539 1.895-.675.393-1.188.353-1.539-.108zm2.335-2.099c.162-.542.243-1.313.243-2.288 0-.962-.081-1.625-.256-1.964-.162-.352-.432-.42-.797-.203-.364.217-.635.582-.797 1.124-.161.542-.256 1.286-.256 2.261 0 .975.081 1.639.256 1.991.163.352.433.42.797.217.378-.217.648-.596.81-1.138zM308.558 350.09c-.35-.46-.526-1.327-.526-2.587 0-1.246.176-2.302.527-3.169.35-.866.863-1.49 1.538-1.882.675-.393 1.188-.366 1.54.095.35.447.526 1.3.526 2.56 0 1.259-.176 2.328-.527 3.195-.35.867-.864 1.503-1.539 1.896-.675.393-1.188.352-1.539-.108zm2.336-2.113c.162-.542.257-1.313.257-2.288 0-.962-.081-1.625-.257-1.964-.175-.339-.432-.42-.797-.203-.364.217-.634.582-.796 1.124-.162.542-.256 1.286-.256 2.261 0 .975.08 1.639.256 1.99.162.353.432.42.797.218.364-.204.62-.583.796-1.138zM313.324 347.327c-.351-.46-.526-1.327-.526-2.586 0-1.246.175-2.302.526-3.17.351-.866.864-1.489 1.539-1.881.675-.393 1.188-.366 1.539.094.351.447.526 1.3.526 2.56s-.175 2.329-.526 3.196c-.351.866-.864 1.503-1.539 1.895-.675.38-1.188.353-1.539-.108zm2.336-2.112c.162-.542.243-1.314.243-2.289 0-.961-.081-1.625-.257-1.963-.175-.339-.432-.42-.797-.204-.364.217-.634.583-.796 1.124-.162.542-.256 1.287-.243 2.262 0 .975.081 1.638.257 1.99.162.353.432.42.796.217.365-.217.635-.596.797-1.137zM318.103 344.565c-.351-.46-.526-1.327-.526-2.587 0-1.246.175-2.302.526-3.169.351-.866.864-1.49 1.539-1.882.675-.393 1.188-.366 1.539.095.351.447.527 1.3.527 2.56 0 1.259-.176 2.328-.527 3.195-.351.867-.864 1.503-1.539 1.896-.675.393-1.188.338-1.539-.108zm2.335-2.113c.162-.542.243-1.313.243-2.288 0-.962-.08-1.625-.256-1.964-.162-.352-.432-.42-.797-.203-.364.217-.634.582-.796 1.124-.162.542-.257 1.286-.257 2.261 0 .975.081 1.639.257 2.004.162.353.432.42.797.217.377-.23.634-.61.81-1.15z"/><path d="M326.392 339.54v1.111l-3.807 2.207v-1.015l1.93-3.887c.23-.46.392-.866.5-1.205.108-.338.162-.636.162-.907 0-.352-.081-.569-.23-.65-.148-.095-.364-.054-.648.108-.499.284-1.012.853-1.539 1.68l-.337-.8c.23-.392.513-.785.864-1.137.351-.366.702-.65 1.053-.853.567-.325 1.012-.407 1.35-.23.337.176.5.582.5 1.218 0 .434-.068.88-.217 1.34-.135.461-.378 1.03-.702 1.694l-1.39 2.79 2.511-1.463z"/></g></g></g></svg>