<svg width="1792" height="1792" xmlns="http://www.w3.org/2000/svg">

 <g>
  <title>background</title>
  <rect fill="none" id="canvas_background" height="402" width="582" y="-1" x="-1"/>
 </g>
 <g>
  <title>Layer 1</title>
  <path fill="#4886f0" id="svg_1" d="m1792,1184l0,192q0,13 -9.5,22.5t-22.5,9.5l-1376,0l0,192q0,13 -9.5,22.5t-22.5,9.5q-12,0 -24,-10l-319,-320q-9,-9 -9,-22q0,-14 9,-23l320,-320q9,-9 23,-9q13,0 22.5,9.5t9.5,22.5l0,192l1376,0q13,0 22.5,9.5t9.5,22.5zm0,-544q0,14 -9,23l-320,320q-9,9 -23,9q-13,0 -22.5,-9.5t-9.5,-22.5l0,-192l-1376,0q-13,0 -22.5,-9.5t-9.5,-22.5l0,-192q0,-13 9.5,-22.5t22.5,-9.5l1376,0l0,-192q0,-14 9,-23t23,-9q12,0 24,10l319,319q9,9 9,23z"/>
 </g>
</svg>