<svg width="30" height="30" xmlns="http://www.w3.org/2000/svg">

 <g>
  <title>background</title>
  <rect fill="none" id="canvas_background" height="402" width="582" y="-1" x="-1"/>
 </g>
 <g>
  <title>Layer 1</title>
  <path fill="#fbe165" id="svg_1" d="m19.999,2l-9.998,0c-0.707,0 -1.191,0.715 -0.928,1.371l0.927,2.629l10,0l0.927,-2.629c0.263,-0.656 -0.221,-1.371 -0.928,-1.371z"/>
  <path fill="#fbe165" id="svg_2" d="m20,8l-10,0c0,0 -7,6 -7,13c0,4 3,6 5,6s7,0 7,0s5,0 7,0s5,-2 5,-6c0,-7 -7,-13 -7,-13zm-4,13.898l0,1.602l-2,0l0,-1.597c-1.471,-0.276 -2.396,-1.18 -2.45,-2.501l1.732,0c0.083,0.694 0.783,1.139 1.792,1.139c0.931,0 1.59,-0.451 1.59,-1.098c0,-0.546 -0.427,-0.86 -1.477,-1.086l-1.115,-0.237c-1.56,-0.326 -2.326,-1.139 -2.326,-2.444c0,-1.313 0.869,-2.249 2.254,-2.557l0,-1.619l2,0l0,1.616c1.35,0.302 2.252,1.222 2.296,2.465l-1.685,0c-0.083,-0.676 -0.712,-1.127 -1.578,-1.127c-0.896,0 -1.489,0.415 -1.489,1.068c0,0.528 0.409,0.831 1.412,1.044l1.032,0.22c1.721,0.362 2.462,1.104 2.462,2.432c0,1.43 -0.918,2.389 -2.45,2.68z"/>
 </g>
</svg>