<svg id="Layer_1" data-name="Layer 1" xmlns="http://www.w3.org/2000/svg" xmlns:xlink="http://www.w3.org/1999/xlink" viewBox="0 0 471.46 512"><defs><style>.cls-1{fill:#035aa6;}.cls-2{fill:url(#linear-gradient);}</style><linearGradient id="linear-gradient" x1="119.25" y1="-679.85" x2="476.6" y2="-679.85" gradientTransform="matrix(1, 0, 0, -1, 0, -336.76)" gradientUnits="userSpaceOnUse"><stop offset="0" stop-color="#03bcd1"/><stop offset="1" stop-color="#028695"/></linearGradient></defs><title>Rlogo</title><g id="logo"><path class="cls-1" d="M491.72,178.76C490.86,79.1,407.77,0,309.54,0h-289a.28.28,0,0,0-.28.29V113.94a.27.27,0,0,0,.28.28h291c32,0,60.82,22.85,66,54.83,6.57,41.12-24.84,76.53-64,76.53H283.27a.28.28,0,0,0-.29.28l82.24,108.23h-.86C438,331.24,492.58,261,491.72,178.76Z" transform="translate(-20.27)"/><path class="cls-2" d="M379.78,382.36l-62-84.81H192.17s-.28,0,0,.28l63.68,90.81h85.67a132.62,132.62,0,0,0,38.26-6.28Z" transform="translate(-20.27)"/><path class="cls-1" d="M287.55,245.58H121.64a.27.27,0,0,0-.28.28l84,114.8L315.82,512h173.9a.28.28,0,0,0,.29-.29L369.22,353.23" transform="translate(-20.27)"/></g></svg>